<svg width="100%" height="100%" viewBox="0 0 146 24" fill="none" xmlns="http://www.w3.org/2000/svg">
<path d="M85.8955 1.25391V14.4777H91.1715V18.2105H81.4971V1.25391H85.8955Z" fill="#E22126"/>
<path d="M96.7157 13.1272C96.7157 14.8825 97.537 15.7586 99.1839 15.7586C100.067 15.7586 100.733 15.3992 101.182 14.6795H105.11C104.317 17.3183 102.334 18.6377 99.1616 18.6377C98.1886 18.6377 97.2983 18.491 96.4908 18.1996C95.6822 17.9062 94.9903 17.4905 94.4141 16.9504C93.8379 16.4114 93.3923 15.7671 93.0782 15.0165C92.7641 14.267 92.607 13.4281 92.607 12.4978C92.607 11.5378 92.7566 10.6723 93.0559 9.90048C93.3551 9.12861 93.7817 8.47263 94.3356 7.93254C94.8885 7.39244 95.5591 6.97674 96.3443 6.68437C97.1296 6.392 98.0167 6.24634 99.0035 6.24634C99.9766 6.24634 100.853 6.392 101.631 6.68437C102.408 6.97674 103.068 7.39989 103.606 7.9538C104.145 8.50985 104.556 9.18815 104.841 9.98978C105.124 10.7925 105.267 11.6962 105.267 12.6998V13.1272H96.7157ZM101.474 10.7659C101.339 10.1961 101.062 9.73888 100.643 9.39335C100.225 9.04995 99.7145 8.87664 99.116 8.87664C98.4878 8.87664 97.9763 9.04144 97.5795 9.37208C97.1826 9.70167 96.9322 10.1663 96.8271 10.7659H101.474Z" fill="#E22126"/>
<path d="M116.468 6.67234H120.553V18.21H116.468V16.9277C115.6 18.0218 114.425 18.5693 112.944 18.5693C112.105 18.5693 111.335 18.4151 110.631 18.1079C109.929 17.8017 109.315 17.37 108.791 16.8151C108.267 16.2611 107.86 15.6094 107.568 14.8588C107.276 14.1093 107.13 13.2927 107.13 12.4071C107.13 11.5842 107.273 10.7996 107.556 10.0575C107.841 9.31541 108.236 8.66687 108.747 8.11189C109.254 7.55691 109.861 7.11888 110.565 6.79674C111.267 6.47459 112.046 6.31299 112.899 6.31299C114.335 6.31299 115.525 6.8148 116.468 7.8195V6.67234ZM111.35 12.4071C111.35 12.7824 111.417 13.1312 111.553 13.4533C111.686 13.7765 111.871 14.0572 112.102 14.2964C112.335 14.5367 112.61 14.7238 112.933 14.8588C113.254 14.9938 113.603 15.0608 113.977 15.0608C114.335 15.0608 114.676 14.9938 114.998 14.8588C115.32 14.7238 115.595 14.5367 115.828 14.2964C116.059 14.0572 116.247 13.7797 116.39 13.4639C116.531 13.1492 116.602 12.8122 116.602 12.4528C116.602 12.0924 116.531 11.7522 116.39 11.429C116.247 11.1069 116.059 10.8262 115.828 10.5859C115.595 10.3467 115.32 10.1585 114.998 10.0235C114.676 9.88846 114.335 9.82041 113.977 9.82041C113.603 9.82041 113.254 9.88846 112.933 10.0235C112.61 10.1585 112.335 10.3467 112.102 10.5859C111.871 10.8262 111.686 11.0994 111.553 11.4067C111.417 11.715 111.35 12.0478 111.35 12.4071Z" fill="#E22126"/>
<path d="M123.313 6.6735H127.377V8.56278C127.811 7.87278 128.342 7.34437 128.97 6.97651C129.599 6.60972 130.332 6.42578 131.169 6.42578H131.517C131.644 6.42578 131.791 6.44174 131.955 6.47044V10.3617C131.417 10.0916 130.833 9.95659 130.206 9.95659C129.261 9.95659 128.554 10.2383 128.083 10.7997C127.612 11.3632 127.377 12.184 127.377 13.262V18.2111H123.313V6.6735Z" fill="#E22126"/>
<path d="M133.774 6.6735H137.837V8.13537C138.39 7.46026 138.95 7.00628 139.52 6.77451C140.089 6.54167 140.755 6.42578 141.517 6.42578C142.325 6.42578 143.017 6.55763 143.593 6.81917C144.17 7.08177 144.66 7.45281 145.063 7.93337C145.393 8.32249 145.617 8.75733 145.737 9.23682C145.857 9.71738 145.916 10.2649 145.916 10.8784V18.2111H141.854V12.386C141.854 11.8161 141.813 11.3557 141.731 11.0017C141.648 10.6509 141.502 10.3691 141.293 10.1597C141.114 9.97893 140.912 9.85241 140.687 9.77693C140.462 9.70144 140.223 9.66423 139.969 9.66423C139.28 9.66423 138.753 9.87155 138.387 10.283C138.018 10.6955 137.837 11.2835 137.837 12.0479V18.2111H133.774V6.6735Z" fill="#E22126"/>
<path d="M39.4471 5.88318L45.6229 9.45651C45.6622 9.18328 45.6197 8.89729 45.4701 8.64L41.2277 1.27749C41.1396 1.2743 41.0526 1.26367 40.9635 1.26367H34.4503V12.4345L38.0008 6.2723C38.2937 5.7641 38.941 5.59081 39.4471 5.88318Z" fill="url(#paint0_linear_1667_30010)"/>
<path d="M38.5154 13.0323V5.83032C38.3085 5.91644 38.1217 6.0536 38.0007 6.26198L34.4502 12.4252V18.2206H40.9634C42.1307 18.2206 43.2204 17.9878 44.2306 17.5232C45.2408 17.0575 46.1258 16.4345 46.8814 15.6541C47.3249 15.1969 47.7048 14.6908 48.0359 14.1476H39.6285C39.0131 14.1476 38.5154 13.6479 38.5154 13.0323Z" fill="url(#paint1_linear_1667_30010)"/>
<path d="M48.642 6.50383C48.207 5.4768 47.6117 4.5763 46.8561 3.80337C46.0985 3.03044 45.2167 2.41273 44.2054 1.94706C43.2716 1.51753 42.2752 1.29639 41.2205 1.26343L45.4682 8.63444C45.8194 9.24364 45.6114 10.023 45.0013 10.377L38.9221 13.894C39.1141 14.0524 39.3561 14.1502 39.6245 14.1502H48.0287C48.2632 13.7664 48.4754 13.3666 48.6526 12.9403C49.0792 11.9122 49.2925 10.8448 49.2925 9.73376C49.2925 8.60679 49.076 7.53192 48.642 6.50383Z" fill="url(#paint2_linear_1667_30010)"/>
<path d="M51.7146 2.27011C51.7146 1.95876 51.7715 1.66634 51.8833 1.39076C51.996 1.11623 52.1507 0.875365 52.3483 0.668153C52.5449 0.45989 52.7735 0.29686 53.0349 0.179054C53.2944 0.0601968 53.5728 0.000244141 53.8692 0.000244141C54.1646 0.000244141 54.4411 0.0601968 54.7026 0.179054C54.962 0.29686 55.1906 0.45989 55.3882 0.668153C55.5848 0.875365 55.7395 1.11623 55.8532 1.39076C55.966 1.66634 56.0209 1.95876 56.0209 2.27011C56.0209 2.58145 55.966 2.87491 55.8532 3.14944C55.7395 3.42397 55.5848 3.66484 55.3882 3.87205C55.1906 4.08031 54.962 4.24229 54.7026 4.36115C54.4411 4.48105 54.1646 4.53996 53.8692 4.53996C53.5728 4.53996 53.2944 4.48105 53.0349 4.36115C52.7735 4.24229 52.5449 4.08031 52.3483 3.87205C52.1507 3.66484 51.996 3.42397 51.8833 3.14944C51.7715 2.87491 51.7146 2.58145 51.7146 2.27011ZM55.7894 18.0676H51.9681V6.65309H55.7894V18.0676Z" fill="#E22126"/>
<path d="M71.9004 6.78539V17.4572C71.9004 18.0968 71.863 18.6699 71.7869 19.1765C71.7119 19.6821 71.607 20.1296 71.471 20.5159C71.29 21.0067 71.0062 21.4647 70.6217 21.889C70.2361 22.3133 69.7713 22.6817 69.2272 22.9941C68.6842 23.3065 68.0684 23.5524 67.3808 23.7319C66.6943 23.9092 65.95 24 65.1499 24C64.2438 24 63.4128 23.8881 62.6577 23.6643C61.9026 23.4406 61.2418 23.1313 60.6753 22.7376C60.1098 22.3429 59.645 21.8817 59.283 21.3529C58.9199 20.8251 58.6779 20.2478 58.5568 19.623H63.1793C63.4663 20.3818 64.1153 20.7618 65.1274 20.7618C65.9885 20.7618 66.6493 20.5233 67.1099 20.0473C67.5704 19.5702 67.8006 18.9084 67.8006 18.0598V16.9653C67.4986 17.2492 67.2084 17.4835 66.9289 17.6693C66.6493 17.8551 66.3655 18.0081 66.0785 18.1274C65.7915 18.2456 65.4894 18.3311 65.1724 18.3839C64.8554 18.4356 64.5084 18.462 64.1303 18.462C63.3003 18.462 62.5367 18.3205 61.8427 18.0377C61.1476 17.7559 60.5478 17.3601 60.0412 16.8545C59.5347 16.3479 59.1427 15.742 58.8631 15.0338C58.5825 14.3277 58.4433 13.5425 58.4433 12.6791C58.4433 11.8009 58.5954 10.9861 58.8974 10.2357C59.1994 9.48315 59.6107 8.82771 60.1323 8.27042C60.6528 7.71103 61.2718 7.27196 61.9894 6.95321C62.7059 6.63235 63.4877 6.47192 64.3338 6.47192C65.709 6.47192 66.8635 6.9796 67.8006 7.99179V6.78539H71.9004ZM62.7027 12.4564C62.7027 12.829 62.7712 13.1741 62.9072 13.495C63.0433 13.8148 63.2285 14.0934 63.462 14.3309C63.6966 14.5694 63.9761 14.7552 64.3006 14.8903C64.6251 15.0233 64.9764 15.0908 65.3545 15.0908C65.7165 15.0908 66.0603 15.0233 66.3848 14.8903C66.7093 14.7552 66.9878 14.5694 67.2223 14.3309C67.4569 14.0934 67.6454 13.8148 67.7899 13.495C67.9324 13.1741 68.0041 12.8363 68.0041 12.4785C68.0041 12.106 67.9324 11.764 67.7899 11.4516C67.6454 11.1392 67.4536 10.8637 67.2116 10.6262C66.9696 10.3877 66.6868 10.2019 66.3623 10.0668C66.0367 9.93277 65.7015 9.86629 65.3545 9.86629C64.9914 9.86629 64.6519 9.93699 64.3338 10.0784C64.0179 10.2199 63.7383 10.4056 63.4963 10.6368C63.2542 10.8679 63.0615 11.1392 62.919 11.4516C62.7744 11.764 62.7027 12.0996 62.7027 12.4564Z" fill="#E22126"/>
<path d="M74.3231 2.27011C74.3231 1.95876 74.3825 1.66634 74.5023 1.39076C74.6221 1.11623 74.7865 0.875365 74.9964 0.668153C75.2053 0.45989 75.4482 0.29686 75.726 0.179054C76.0017 0.0601968 76.2964 0.000244141 76.6114 0.000244141C76.9252 0.000244141 77.22 0.0601968 77.4968 0.179054C77.7735 0.29686 78.0163 0.45989 78.2263 0.668153C78.4352 0.875365 78.5995 1.11623 78.7194 1.39076C78.8392 1.66634 78.8986 1.95876 78.8986 2.27011C78.8986 2.58145 78.8392 2.87491 78.7194 3.14944C78.5995 3.42397 78.4352 3.66484 78.2263 3.87205C78.0163 4.08031 77.7735 4.24229 77.4968 4.36115C77.22 4.48105 76.9252 4.53996 76.6114 4.53996C76.2964 4.53996 76.0017 4.48105 75.726 4.36115C75.4482 4.24229 75.2053 4.08031 74.9964 3.87205C74.7865 3.66484 74.6221 3.42397 74.5023 3.14944C74.3825 2.87491 74.3231 2.58145 74.3231 2.27011ZM78.6525 18.0676H74.5924V6.65309H78.6525V18.0676Z" fill="#E22126"/>
<path d="M0 18.2235V7.15112H3.90646V8.63643C4.2527 8.11132 4.71184 7.69123 5.28388 7.37616C5.87098 7.0611 6.54088 6.90356 7.29357 6.90356C8.04626 6.90356 8.69357 7.0686 9.23551 7.39867C9.7925 7.72874 10.214 8.23885 10.5 8.92899C10.8764 8.28386 11.3882 7.78875 12.0355 7.44368C12.6828 7.0836 13.3979 6.90356 14.1807 6.90356C15.4753 6.90356 16.4312 7.29365 17.0484 8.07381C17.6807 8.83897 17.9968 10.0392 17.9968 11.6746V18.2235H13.9775V11.7871C13.9775 11.142 13.8796 10.6769 13.6839 10.3918C13.4882 10.1067 13.1645 9.96421 12.7129 9.96421C12.1559 9.96421 11.7269 10.1593 11.4258 10.5493C11.1398 10.9394 10.9968 11.4945 10.9968 12.2147V18.2235H6.97744V11.7871C6.97744 11.142 6.87959 10.6769 6.68389 10.3918C6.48819 10.1067 6.16453 9.96421 5.71292 9.96421C5.17098 9.96421 4.74948 10.1593 4.4484 10.5493C4.16238 10.9394 4.01936 11.4945 4.01936 12.2147V18.2235H0Z" fill="#222222"/>
<path d="M20.8976 22.2743L23.133 17.4583L18.5943 7.15112H22.8169L25.2556 13.4299L27.7847 7.15112H31.7589L24.9621 22.2743H20.8976Z" fill="#222222"/>
<defs>
<linearGradient id="paint0_linear_1667_30010" x1="45.6404" y1="6.83462" x2="34.4478" y2="6.83462" gradientUnits="userSpaceOnUse">
<stop stop-color="#850505"/>
<stop offset="0.0015" stop-color="#850505"/>
<stop offset="1" stop-color="#E22026"/>
</linearGradient>
<linearGradient id="paint1_linear_1667_30010" x1="41.2117" y1="5.82798" x2="41.2117" y2="18.2182" gradientUnits="userSpaceOnUse">
<stop stop-color="#850505"/>
<stop offset="0.0015" stop-color="#850505"/>
<stop offset="1" stop-color="#E22026"/>
</linearGradient>
<linearGradient id="paint2_linear_1667_30010" x1="38.6925" y1="13.667" x2="47.7123" y2="4.66463" gradientUnits="userSpaceOnUse">
<stop stop-color="#850505"/>
<stop offset="0.0015" stop-color="#850505"/>
<stop offset="1" stop-color="#E22026"/>
</linearGradient>
</defs>
</svg>
