<svg width="10" height="10" viewBox="0 0 10 10" fill="none" xmlns="http://www.w3.org/2000/svg">
<path fill-rule="evenodd" clip-rule="evenodd" d="M1.62012 0.833496H8.28678C8.99512 0.833496 9.53678 1.37516 9.53678 2.0835V4.5835C9.53678 7.12516 7.49512 9.16683 4.95345 9.16683C2.41178 9.16683 0.370117 7.12516 0.370117 4.5835V2.0835C0.370117 1.37516 0.911784 0.833496 1.62012 0.833496ZM6.91178 4.4585C7.07845 4.29183 7.07845 4.04183 6.91178 3.87516C6.74512 3.7085 6.49512 3.7085 6.32845 3.87516L4.95345 5.25016L3.57845 3.87516C3.41178 3.7085 3.16178 3.7085 2.99512 3.87516C2.82845 4.04183 2.82845 4.29183 2.99512 4.4585L4.66178 6.12516C4.74512 6.2085 4.82845 6.25016 4.95345 6.25016C5.07845 6.25016 5.16178 6.2085 5.24512 6.12516L6.91178 4.4585Z" fill="#0093AD"/>
</svg>
