<svg width="150" height="150" viewBox="0 0 150 150" fill="none" xmlns="http://www.w3.org/2000/svg">
<path d="M129.375 48.125L60.625 116.875C59.375 118.125 58.125 118.75 56.25 118.75C54.375 118.75 53.125 118.125 51.875 116.875L20.625 85.625C18.125 83.125 18.125 79.375 20.625 76.875C23.125 74.375 26.875 74.375 29.375 76.875L56.25 103.75L120.625 39.375C123.125 36.875 126.875 36.875 129.375 39.375C131.875 41.875 131.875 45.625 129.375 48.125Z" fill="black"/>
<mask id="mask0_5683_145248" style="mask-type:alpha" maskUnits="userSpaceOnUse" x="18" y="37" width="114" height="82">
<path d="M129.375 48.125L60.625 116.875C59.375 118.125 58.125 118.75 56.25 118.75C54.375 118.75 53.125 118.125 51.875 116.875L20.625 85.625C18.125 83.125 18.125 79.375 20.625 76.875C23.125 74.375 26.875 74.375 29.375 76.875L56.25 103.75L120.625 39.375C123.125 36.875 126.875 36.875 129.375 39.375C131.875 41.875 131.875 45.625 129.375 48.125Z" fill="white"/>
</mask>
<g mask="url(#mask0_5683_145248)">
<rect width="150" height="150" fill="#0093AD"/>
</g>
</svg>
