<svg width="16" height="17" viewBox="0 0 16 17" fill="none" xmlns="http://www.w3.org/2000/svg">
<path fill-rule="evenodd" clip-rule="evenodd" d="M12 2.49984H11.3333C11.3333 1.7665 10.7333 1.1665 10 1.1665H6C5.26667 1.1665 4.66667 1.7665 4.66667 2.49984H4C2.86667 2.49984 2 3.3665 2 4.49984V13.8332C2 14.9665 2.86667 15.8332 4 15.8332H12C13.1333 15.8332 14 14.9665 14 13.8332V4.49984C14 3.3665 13.1333 2.49984 12 2.49984ZM6 2.49984H10V3.83317H6V3.1665V2.49984ZM12 14.4998C12.4 14.4998 12.6667 14.2332 12.6667 13.8332V4.49984C12.6667 4.09984 12.4 3.83317 12 3.83317H11.3333C11.3333 4.5665 10.7333 5.1665 10 5.1665H6C5.26667 5.1665 4.66667 4.5665 4.66667 3.83317H4C3.6 3.83317 3.33333 4.09984 3.33333 4.49984V13.8332C3.33333 14.2332 3.6 14.4998 4 14.4998H12Z" fill="black"/>
<mask id="mask0_4379_8146" style="mask-type:alpha" maskUnits="userSpaceOnUse" x="2" y="1" width="12" height="15">
<path fill-rule="evenodd" clip-rule="evenodd" d="M12 2.49984H11.3333C11.3333 1.7665 10.7333 1.1665 10 1.1665H6C5.26667 1.1665 4.66667 1.7665 4.66667 2.49984H4C2.86667 2.49984 2 3.3665 2 4.49984V13.8332C2 14.9665 2.86667 15.8332 4 15.8332H12C13.1333 15.8332 14 14.9665 14 13.8332V4.49984C14 3.3665 13.1333 2.49984 12 2.49984ZM6 2.49984H10V3.83317H6V3.1665V2.49984ZM12 14.4998C12.4 14.4998 12.6667 14.2332 12.6667 13.8332V4.49984C12.6667 4.09984 12.4 3.83317 12 3.83317H11.3333C11.3333 4.5665 10.7333 5.1665 10 5.1665H6C5.26667 5.1665 4.66667 4.5665 4.66667 3.83317H4C3.6 3.83317 3.33333 4.09984 3.33333 4.49984V13.8332C3.33333 14.2332 3.6 14.4998 4 14.4998H12Z" fill="white"/>
</mask>
<g mask="url(#mask0_4379_8146)">
<rect y="0.5" width="16" height="16" fill="#0D6EFD"/>
</g>
</svg>
