<svg width="14" height="14" viewBox="0 0 14 14" fill="none" xmlns="http://www.w3.org/2000/svg">
<path fill-rule="evenodd" clip-rule="evenodd" d="M6.76699 9.85801C6.70866 9.85801 6.65033 9.79967 6.59199 9.74134L4.25866 7.40801C4.02533 7.17467 4.02533 6.82468 4.25866 6.59134C4.49199 6.35801 4.84199 6.35801 5.07533 6.59134L6.41699 7.93301V1.16634C6.41699 0.816341 6.65033 0.583008 7.00033 0.583008C7.35033 0.583008 7.58366 0.816341 7.58366 1.16634V7.93301L8.92533 6.59134C9.15866 6.35801 9.50866 6.35801 9.74199 6.59134C9.97533 6.82468 9.97533 7.17467 9.74199 7.40801L7.40866 9.74134C7.37949 9.77051 7.35033 9.78509 7.32116 9.79967C7.29199 9.81426 7.26283 9.82884 7.23366 9.85801C7.17533 9.91634 7.05866 9.91634 7.00033 9.91634C6.94199 9.91634 6.82533 9.91634 6.76699 9.85801ZM12.8337 11.6663V9.91634C12.8337 9.56634 12.6003 9.33301 12.2503 9.33301C11.9003 9.33301 11.667 9.56634 11.667 9.91634V11.6663C11.667 12.0163 11.4337 12.2497 11.0837 12.2497H2.91699C2.56699 12.2497 2.33366 12.0163 2.33366 11.6663V9.91634C2.33366 9.56634 2.10033 9.33301 1.75033 9.33301C1.40033 9.33301 1.16699 9.56634 1.16699 9.91634V11.6663C1.16699 12.658 1.92533 13.4163 2.91699 13.4163H11.0837C12.0753 13.4163 12.8337 12.658 12.8337 11.6663Z" fill="black"/>
<mask id="mask0_5542_65418" style="mask-type:alpha" maskUnits="userSpaceOnUse" x="1" y="0" width="12" height="14">
<path fill-rule="evenodd" clip-rule="evenodd" d="M6.76699 9.85801C6.70866 9.85801 6.65033 9.79967 6.59199 9.74134L4.25866 7.40801C4.02533 7.17467 4.02533 6.82468 4.25866 6.59134C4.49199 6.35801 4.84199 6.35801 5.07533 6.59134L6.41699 7.93301V1.16634C6.41699 0.816341 6.65033 0.583008 7.00033 0.583008C7.35033 0.583008 7.58366 0.816341 7.58366 1.16634V7.93301L8.92533 6.59134C9.15866 6.35801 9.50866 6.35801 9.74199 6.59134C9.97533 6.82468 9.97533 7.17467 9.74199 7.40801L7.40866 9.74134C7.37949 9.77051 7.35033 9.78509 7.32116 9.79967C7.29199 9.81426 7.26283 9.82884 7.23366 9.85801C7.17533 9.91634 7.05866 9.91634 7.00033 9.91634C6.94199 9.91634 6.82533 9.91634 6.76699 9.85801ZM12.8337 11.6663V9.91634C12.8337 9.56634 12.6003 9.33301 12.2503 9.33301C11.9003 9.33301 11.667 9.56634 11.667 9.91634V11.6663C11.667 12.0163 11.4337 12.2497 11.0837 12.2497H2.91699C2.56699 12.2497 2.33366 12.0163 2.33366 11.6663V9.91634C2.33366 9.56634 2.10033 9.33301 1.75033 9.33301C1.40033 9.33301 1.16699 9.56634 1.16699 9.91634V11.6663C1.16699 12.658 1.92533 13.4163 2.91699 13.4163H11.0837C12.0753 13.4163 12.8337 12.658 12.8337 11.6663Z" fill="white"/>
</mask>
<g mask="url(#mask0_5542_65418)">
<rect width="14" height="14" fill="white"/>
</g>
</svg>
