<svg width="18" height="23" viewBox="0 0 18 23" fill="none" xmlns="http://www.w3.org/2000/svg">
<mask id="mask0_695_91176" style="mask-type:alpha" maskUnits="userSpaceOnUse" x="0" y="0" width="18" height="23">
<path fill-rule="evenodd" clip-rule="evenodd" d="M17 0.5H3.5C1.6 0.5 0 2.1 0 4V19C0 20.9 1.6 22.5 3.5 22.5H17C17.6 22.5 18 22.1 18 21.5V1.5C18 0.9 17.6 0.5 17 0.5ZM3.5 2.5H16V15.5H3.5C3 15.5 2.5 15.6 2 15.9V4C2 3.2 2.7 2.5 3.5 2.5ZM2 19C2 19.8 2.7 20.5 3.5 20.5H16V17.5H3.5C2.7 17.5 2 18.2 2 19Z" fill="white"/>
</mask>
<g mask="url(#mask0_695_91176)">
<rect x="-3" y="-0.5" width="24" height="24" fill="#00CFE8"/>
</g>
</svg>
