<svg width="563" height="463" viewBox="0 0 563 463" fill="none" xmlns="http://www.w3.org/2000/svg">
<g id="Illustration">
<g id="Shape">
<path id="Rectangle" opacity="0.128511" fill-rule="evenodd" clip-rule="evenodd" d="M224.128 155.504C225.837 150.259 231.471 147.388 236.719 149.089L450.829 218.477C456.089 220.181 458.967 225.83 457.254 231.087L406.483 386.941C404.774 392.187 399.14 395.057 393.891 393.357L179.781 323.969C174.522 322.264 171.643 316.615 173.356 311.358L224.128 155.504Z" fill="url(#paint0_linear_5796_147540)"/>
<path id="Rectangle_2" opacity="0.216285" fill-rule="evenodd" clip-rule="evenodd" d="M300.278 9.73941C301.986 4.49386 307.621 1.62314 312.869 3.32394L552.567 81.0043C557.827 82.7088 560.705 88.3578 558.992 93.6147L502.062 268.374C500.353 273.619 494.719 276.49 489.471 274.789L249.772 197.109C244.513 195.404 241.635 189.755 243.347 184.498L300.278 9.73941Z" fill="url(#paint1_linear_5796_147540)"/>
</g>
<g id="Cloud Storage">
<g id="Phone1">
<path id="Rectangle_3" fill-rule="evenodd" clip-rule="evenodd" d="M131.09 66.2444C131.09 52.3617 142.344 41.1074 156.227 41.1074H306.712C320.594 41.1074 331.849 52.3616 331.849 66.2444V432.701C331.849 446.584 320.594 457.838 306.712 457.838H156.227C142.344 457.838 131.09 446.584 131.09 432.701V66.2444Z" fill="#F6CCCE"/>
<g id="Group 52">
<path id="Rectangle_4" fill-rule="evenodd" clip-rule="evenodd" d="M138.33 77.979C138.33 67.7496 146.623 59.457 156.852 59.457H305.428C315.657 59.457 323.95 67.7496 323.95 77.979V426.44C323.95 436.669 315.657 444.962 305.428 444.962H156.852C146.623 444.962 138.33 436.669 138.33 426.44V77.979Z" fill="white"/>
<mask id="mask0_5796_147540" style="mask-type:alpha" maskUnits="userSpaceOnUse" x="138" y="59" width="186" height="386">
<path id="Rectangle_5" fill-rule="evenodd" clip-rule="evenodd" d="M138.33 77.979C138.33 67.7496 146.623 59.457 156.852 59.457H305.428C315.657 59.457 323.95 67.7496 323.95 77.979V426.44C323.95 436.669 315.657 444.962 305.428 444.962H156.852C146.623 444.962 138.33 436.669 138.33 426.44V77.979Z" fill="white"/>
</mask>
<g mask="url(#mask0_5796_147540)">
<ellipse id="Oval" cx="222.634" cy="281.454" rx="15.9208" ry="15.9236" fill="#EE99A0"/>
</g>
</g>
<path id="Path" d="M250.311 47.9053C252.029 47.9053 253.421 49.242 253.421 50.891C253.421 52.5033 252.09 53.8171 250.425 53.8747L250.311 53.8766H195.249C193.532 53.8766 192.14 52.5399 192.14 50.891C192.14 49.2787 193.471 47.9648 195.135 47.9072L195.249 47.9053H250.311Z" fill="#E4676F"/>
<path id="Path_2" d="M260.425 47.4082C262.142 47.4082 263.534 48.8006 263.534 50.5183C263.534 52.1978 262.204 53.5663 260.539 53.6263L260.425 53.6284H260.262C258.545 53.6284 257.152 52.2359 257.152 50.5183C257.152 48.8388 258.483 47.4702 260.148 47.4103L260.262 47.4082H260.425Z" fill="#E4676F"/>
</g>
<g id="Group 28">
<path id="Rectangle_6" fill-rule="evenodd" clip-rule="evenodd" d="M307.09 266.107C307.09 262.794 309.776 260.107 313.09 260.107H343.454L355.09 272.107V311.107C355.09 314.421 352.404 317.107 349.09 317.107H313.09C309.776 317.107 307.09 314.421 307.09 311.107V266.107Z" fill="#FB9C9D"/>
<path id="PDF" fill-rule="evenodd" clip-rule="evenodd" d="M317.131 302.107V297.337H320.155C321.535 297.337 322.609 296.989 323.377 296.293C324.145 295.597 324.529 294.625 324.529 293.377C324.529 292.129 324.145 291.157 323.377 290.461C322.609 289.765 321.535 289.417 320.155 289.417H314.323V302.107H317.131ZM319.795 295.213H317.131V291.559H319.795C320.503 291.559 321.031 291.709 321.379 292.009C321.727 292.309 321.901 292.771 321.901 293.395C321.901 294.607 321.199 295.213 319.795 295.213ZM331.279 302.107C332.671 302.107 333.865 301.855 334.861 301.351C335.857 300.847 336.616 300.118 337.138 299.164C337.66 298.21 337.921 297.073 337.921 295.753C337.921 294.433 337.657 293.299 337.129 292.351C336.601 291.403 335.839 290.677 334.843 290.173C333.847 289.669 332.659 289.417 331.279 289.417H326.347V302.107H331.279ZM331.081 299.839H329.155V291.685H331.081C333.781 291.685 335.131 293.041 335.131 295.753C335.131 298.477 333.781 299.839 331.081 299.839ZM342.853 302.107V296.761H348.289V294.547H342.853V291.631H348.649V289.417H340.081V302.107H342.853Z" fill="white"/>
<path id="Path_3" opacity="0.33996" d="M355.09 272.107H346.454C344.797 272.107 343.454 270.764 343.454 269.107V260.107L355.09 272.107Z" fill="#EA5455"/>
</g>
<g id="Group 28_2">
<path id="Rectangle_7" fill-rule="evenodd" clip-rule="evenodd" d="M169.09 342.107C169.09 338.794 171.776 336.107 175.09 336.107H205.454L217.09 348.107V387.107C217.09 390.421 214.404 393.107 211.09 393.107H175.09C171.776 393.107 169.09 390.421 169.09 387.107V342.107Z" fill="#FFBC7C"/>
<path id="Rectangle_8" fill-rule="evenodd" clip-rule="evenodd" d="M177.09 368.607C177.09 368.331 177.314 368.107 177.59 368.107H184.59C184.866 368.107 185.09 368.331 185.09 368.607V382.607C185.09 382.884 184.866 383.107 184.59 383.107H177.59C177.314 383.107 177.09 382.884 177.09 382.607V368.607Z" fill="white"/>
<path id="Rectangle_9" fill-rule="evenodd" clip-rule="evenodd" d="M189.09 358.607C189.09 358.331 189.314 358.107 189.59 358.107H196.59C196.866 358.107 197.09 358.331 197.09 358.607V382.607C197.09 382.884 196.866 383.107 196.59 383.107H189.59C189.314 383.107 189.09 382.884 189.09 382.607V358.607Z" fill="white"/>
<path id="Rectangle_10" fill-rule="evenodd" clip-rule="evenodd" d="M201.09 365.607C201.09 365.331 201.314 365.107 201.59 365.107H208.59C208.866 365.107 209.09 365.331 209.09 365.607V382.607C209.09 382.884 208.866 383.107 208.59 383.107H201.59C201.314 383.107 201.09 382.884 201.09 382.607V365.607Z" fill="white"/>
<path id="Path_4" opacity="0.732678" d="M217.09 348.107H208.454C206.797 348.107 205.454 346.764 205.454 345.107V336.107L217.09 348.107Z" fill="#FC9735"/>
</g>
<g id="Group 28_3">
<path id="Rectangle_11" fill-rule="evenodd" clip-rule="evenodd" d="M237.09 305.107C237.09 301.794 239.776 299.107 243.09 299.107H273.454L285.09 311.107V350.107C285.09 353.421 282.404 356.107 279.09 356.107H243.09C239.776 356.107 237.09 353.421 237.09 350.107V305.107Z" fill="#B7B0FF"/>
<g id="Group 31">
<circle id="Oval_2" cx="253.381" cy="336.257" r="4.8" fill="white"/>
<circle id="Oval_3" cx="264.89" cy="334.186" r="4.8" fill="white"/>
<path id="Path_5" fill-rule="evenodd" clip-rule="evenodd" d="M269.689 318.711V333.824H267.889L267.889 322.385L258.166 325.537V336.113H256.366L256.367 323.028L269.689 318.711Z" fill="white"/>
</g>
<path id="Path_6" opacity="0.33996" d="M285.09 311.107H276.454C274.797 311.107 273.454 309.764 273.454 308.107V299.107L285.09 311.107Z" fill="#564EA6"/>
</g>
<g id="Group 73">
<path id="Rectangle_12" opacity="0.272833" fill-rule="evenodd" clip-rule="evenodd" d="M292.201 115.859C292.201 109.921 287.387 105.107 281.449 105.107H180.294C174.356 105.107 169.542 109.921 169.542 115.859V236.72C169.542 242.658 174.356 247.472 180.294 247.472H281.449C287.387 247.472 292.201 242.658 292.201 236.72V115.859Z" fill="#EE99A0"/>
<path id="Rectangle_13" fill-rule="evenodd" clip-rule="evenodd" d="M282.924 126.537C282.924 120.599 278.11 115.785 272.172 115.785H190.96C185.022 115.785 180.208 120.599 180.208 126.537V136.787C180.208 142.725 185.022 147.539 190.96 147.539H272.172C278.11 147.539 282.924 142.725 282.924 136.787V126.537Z" fill="#F1B7B6"/>
<path id="Rectangle_14" fill-rule="evenodd" clip-rule="evenodd" d="M275.98 131.55C275.98 125.791 271.312 121.123 265.553 121.123H264.187C258.428 121.123 253.76 125.791 253.76 131.55V131.55C253.76 137.309 258.428 141.977 264.187 141.977H265.553C271.312 141.977 275.98 137.309 275.98 131.55V131.55Z" fill="white"/>
<path id="Rectangle_15" fill-rule="evenodd" clip-rule="evenodd" d="M282.924 168.245C282.924 162.307 278.11 157.493 272.172 157.493H190.96C185.022 157.493 180.208 162.307 180.208 168.245V178.495C180.208 184.433 185.022 189.247 190.96 189.247H272.172C278.11 189.247 282.924 184.433 282.924 178.495V168.245Z" fill="#F1B7B6"/>
<path id="Rectangle_16" fill-rule="evenodd" clip-rule="evenodd" d="M275.98 173.259C275.98 167.5 271.312 162.832 265.553 162.832H264.187C258.428 162.832 253.76 167.5 253.76 173.259V173.259C253.76 179.018 258.428 183.686 264.187 183.686H265.553C271.312 183.686 275.98 179.018 275.98 173.259V173.259Z" fill="white"/>
<path id="Rectangle_17" fill-rule="evenodd" clip-rule="evenodd" d="M282.924 209.953C282.924 204.015 278.11 199.201 272.172 199.201H190.96C185.022 199.201 180.208 204.015 180.208 209.953V220.203C180.208 226.141 185.022 230.955 190.96 230.955H272.172C278.11 230.955 282.924 226.141 282.924 220.203V209.953Z" fill="#F1B7B6"/>
<path id="Rectangle_18" fill-rule="evenodd" clip-rule="evenodd" d="M275.98 214.967C275.98 209.208 271.312 204.54 265.553 204.54H264.187C258.428 204.54 253.76 209.208 253.76 214.967V214.967C253.76 220.726 258.428 225.394 264.187 225.394H265.553C271.312 225.394 275.98 220.726 275.98 214.967V214.967Z" fill="white"/>
</g>
<g id="Group 37">
<path id="Rectangle_19" fill-rule="evenodd" clip-rule="evenodd" d="M394.09 95.8135C394.09 93.6043 395.881 91.8135 398.09 91.8135L404.385 91.8135C406.594 91.8135 408.385 93.6043 408.385 95.8135V98.6475C408.385 99.3209 408.931 99.8668 409.605 99.8668H455.016C457.225 99.8668 459.016 101.658 459.016 103.867V142.681C459.016 144.89 457.225 146.681 455.016 146.681H398.09C395.881 146.681 394.09 144.89 394.09 142.681V95.8135Z" fill="#FF9F43"/>
<path id="Rectangle_20" fill-rule="evenodd" clip-rule="evenodd" d="M409.493 96.6513C409.587 96.0595 410.097 95.624 410.697 95.624H460.291C461.041 95.624 461.613 96.2947 461.495 97.0354L454.044 143.749C453.95 144.341 453.439 144.776 452.84 144.776H403.246C402.496 144.776 401.923 144.105 402.042 143.365L409.493 96.6513Z" fill="url(#paint2_linear_5796_147540)"/>
<path id="Rectangle_21" fill-rule="evenodd" clip-rule="evenodd" d="M462.784 108.106C465.3 108.106 467.191 110.401 466.711 112.87L461.275 140.827C460.544 144.586 457.252 147.3 453.422 147.3H398.942C396.427 147.3 394.536 145.006 395.016 142.537L400.452 114.58C401.183 110.82 404.475 108.106 408.305 108.106L462.784 108.106Z" fill="#FABB7E"/>
</g>
<g id="Group 28_4">
<path id="Rectangle_22" fill-rule="evenodd" clip-rule="evenodd" d="M360.09 188.107C360.09 184.794 362.776 182.107 366.09 182.107H422.09C425.404 182.107 428.09 184.794 428.09 188.107V233.107C428.09 236.421 425.404 239.107 422.09 239.107H366.09C362.776 239.107 360.09 236.421 360.09 233.107V188.107Z" fill="#77ECAB"/>
<path id="Path 6" fill-rule="evenodd" clip-rule="evenodd" d="M387.264 201.679C386.721 201.415 386.09 201.81 386.09 202.413V218.771C386.09 219.381 386.736 219.776 387.279 219.497L403.637 211.102C404.235 210.795 404.226 209.936 403.621 209.642L387.264 201.679Z" fill="white"/>
<rect id="Rectangle_23" x="367.09" y="187.107" width="6" height="6" fill="white"/>
<rect id="Rectangle_24" x="379.09" y="187.107" width="6" height="6" fill="white"/>
<rect id="Rectangle_25" x="391.09" y="187.107" width="6" height="6" fill="white"/>
<rect id="Rectangle_26" x="403.09" y="187.107" width="6" height="6" fill="white"/>
<rect id="Rectangle_27" x="415.09" y="187.107" width="6" height="6" fill="white"/>
<rect id="Rectangle_28" x="367.09" y="227.107" width="6" height="6" fill="white"/>
<rect id="Rectangle_29" x="379.09" y="227.107" width="6" height="6" fill="white"/>
<rect id="Rectangle_30" x="391.09" y="227.107" width="6" height="6" fill="white"/>
<rect id="Rectangle_31" x="403.09" y="227.107" width="6" height="6" fill="white"/>
<rect id="Rectangle_32" x="415.09" y="227.107" width="6" height="6" fill="white"/>
</g>
<g id="Men3.6">
<g id="RLeg">
<path id="Path_7" fill-rule="evenodd" clip-rule="evenodd" d="M38.5047 435.567L34.9013 457.323L47.3298 457.257L47.75 435.226L38.5047 435.567Z" fill="#B8B6C9"/>
<path id="Path_8" fill-rule="evenodd" clip-rule="evenodd" d="M33.9148 449.11L33.8268 450.943C32.4997 452.41 31.9323 455.443 32.1247 460.041C32.1247 463.117 49.9065 463.026 50.8931 460.041C51.2298 455.051 50.6251 451.953 49.0791 450.747L49.0694 448.977C49.0632 447.828 48.2859 446.826 47.1706 446.528L44.9202 445.926C42.9785 443.103 40.3321 443.202 38.0644 446.279L35.9323 446.739C34.7977 446.985 33.9702 447.957 33.9148 449.11Z" fill="#2F2B57"/>
<path id="Path_9" fill-rule="evenodd" clip-rule="evenodd" d="M80.6562 264.057C80.6562 264.057 64.5864 352.337 61.7686 361.53C58.9508 370.723 51.1362 439.868 51.1362 439.868L34.2566 439.916C34.2566 439.916 33.897 386.689 35.6021 378.135C37.3072 369.581 41.1561 355.492 41.1561 355.492C41.1561 355.492 44.0158 304.347 45.7266 292.416C47.4369 280.486 52.9278 262.802 52.9278 262.802L80.6562 264.057Z" fill="#2F2B57"/>
<path id="Path_10" fill-rule="evenodd" clip-rule="evenodd" d="M68.4256 329.545L69.9678 317.529L68.8395 320.838C63.2219 337.411 59.4022 350.277 57.3806 359.434C55.6793 367.14 55.3216 380.444 56.3076 399.345L57.4283 390.083C59.0441 376.967 60.6151 365.456 61.7258 361.672L61.8356 361.305C62.8794 357.71 65.4798 344.819 68.4256 329.545Z" fill="white" fill-opacity="0.192499"/>
</g>
<g id="LLeg">
<path id="Path_11" fill-rule="evenodd" clip-rule="evenodd" d="M79.3311 438.657L90.675 438.733L90.6782 439.051C90.7156 440.613 91.1412 447.503 95.6962 450.148L96.6051 450.685C101.734 453.758 108.83 458.7 108.83 458.7L78.4653 459.733L79.3311 438.657Z" fill="#B8B6C9"/>
<path id="Path_12" fill-rule="evenodd" clip-rule="evenodd" d="M80.9006 446.374C78.2408 446.129 76.911 451.231 76.911 461.68L90.5289 461.73L91.4517 459.733L92.3188 460.082C94.1654 460.807 95.4769 461.208 96.2531 461.283L96.9737 461.349C100.792 461.679 106.083 461.833 112.848 461.812L112.871 461.696C112.985 460.988 113.288 457.207 107.408 454.333L107.132 454.201C100.429 451.06 95.5166 446.624 94.4559 446.034L94.4044 446.007C93.4545 445.54 94.0742 445.275 92.7243 446.374C91.3745 447.472 91.1523 450.36 88.0936 450.45C84.1568 450.567 84.8903 446.741 80.9006 446.374Z" fill="#2F2B57"/>
<path id="Path_13" fill-rule="evenodd" clip-rule="evenodd" d="M65.1812 305.663C69.5319 321.352 73.0783 359.663 73.0783 359.663C73.0783 359.663 73.4787 363.699 71.7455 374.879C70.0122 386.059 76.8417 440.461 76.8417 440.461L94.8178 440.497C94.8178 440.497 97.0351 367.414 97.1402 359.727C97.3044 347.742 101.191 264.646 101.191 264.646L63.8051 263.795C63.8051 263.795 60.8304 289.975 65.1812 305.663Z" fill="#353160"/>
<path id="Path_14" fill-rule="evenodd" clip-rule="evenodd" d="M91.3937 296.094L91.4643 296.401C94.0468 307.26 89.618 355.388 90.8788 366.832L91.381 370.926C92.2574 378.283 93.7406 391.696 95.8303 411.164L96.2836 394.869C96.6997 379.382 97.0535 364.81 97.13 360.378L97.1402 359.727C97.3044 347.742 101.191 264.647 101.191 264.647L94.1973 264.488L93.8915 265.832C90.8041 279.601 89.9715 289.688 91.3937 296.094V296.094Z" fill="white" fill-opacity="0.192499"/>
<path id="Path 47" d="M97.3035 449.11L98.1641 447.617" stroke="white" stroke-width="2" stroke-linecap="round"/>
<path id="Path 47_2" d="M99.8396 450.816L100.7 449.323" stroke="white" stroke-width="2" stroke-linecap="round"/>
<path id="Path 47_3" d="M102.376 452.522L103.236 451.029" stroke="white" stroke-width="2" stroke-linecap="round"/>
</g>
<g id="Head">
<path id="Path_15" fill-rule="evenodd" clip-rule="evenodd" d="M92.0553 156.277C95.9601 156.704 95.6833 163.564 90.9299 163.922C89.9584 170.535 86.4936 173.686 82.2695 174.05L82.5038 184.053L63.819 184.041C63.819 184.041 69.0806 176.976 68.8183 167.302C68.5561 157.628 68.9944 148.541 68.9944 148.541L93.1953 148.975L92.0553 156.277Z" fill="url(#paint3_linear_5796_147540)"/>
<path id="Path_16" fill-rule="evenodd" clip-rule="evenodd" d="M93.9295 152.202C95.6132 153.015 94.2728 156.688 93.4202 156.688C89.509 155.142 86.2663 160.707 84.6179 166.297C79.9366 170.886 69.5931 170.988 68.5245 167.149C64.4788 158.74 64.2804 146.581 69.0015 145.643C65.2955 135.871 115.345 130.76 93.9295 152.202Z" fill="url(#paint4_linear_5796_147540)"/>
<path id="Path 45" fill-rule="evenodd" clip-rule="evenodd" d="M89.7503 167.669C89.5581 167.247 88.4118 170.132 86.5589 171.678C84.6413 173.278 81.7629 173.746 82.2698 174.05C86.1601 176.379 91.3164 171.101 89.7503 167.669Z" fill="url(#paint5_linear_5796_147540)"/>
</g>
<g id="Group 9">
<path id="Path_17" fill-rule="evenodd" clip-rule="evenodd" d="M17.5907 202.681C17.5907 202.681 18.4116 197.153 18.1511 193.516C17.6692 186.79 18.5908 181.115 17.1013 180.233C15.1908 179.1 14.713 189.144 14.713 189.144C14.713 189.144 3.80216 171.382 1.52748 173.529C-0.747195 175.674 3.99772 185.008 3.24535 187.707C2.49297 190.405 10.0114 203.459 10.0114 203.459L17.5907 202.681Z" fill="url(#paint6_linear_5796_147540)"/>
<path id="Path_18" fill-rule="evenodd" clip-rule="evenodd" d="M57.9241 205.874C57.9241 205.874 41.3972 231.58 37.746 236.566C33.9162 241.794 27.1525 244.109 22.3525 235.768C18.1071 228.389 9.01654 209.912 7.86603 204.169C7.00769 199.883 15.7996 193.496 20.0252 199.9C24.2507 206.303 30.9243 215.932 30.9243 215.932C30.9243 215.932 41.8984 196.051 45.3194 191.36C54.5452 178.709 68.6019 190.069 57.9241 205.874Z" fill="white"/>
<path id="Path_19" fill-rule="evenodd" clip-rule="evenodd" d="M30.9243 215.932L27.293 222.184L28.6163 212.534L30.9243 215.932Z" fill="black" fill-opacity="0.159856"/>
<path id="Path 54" d="M19.7173 200.106C15.8778 198.892 12.3621 199.538 9.55666 204.263" stroke="#D2000F" stroke-linecap="round"/>
</g>
<g id="Group 17">
<path id="Path_20" fill-rule="evenodd" clip-rule="evenodd" d="M65.8445 179.179L85.1514 179.304L85.9417 179.622C89.1266 180.928 100.955 186.014 103.158 190.369C106.84 197.646 101.989 255.954 104.104 259.472C108.565 266.895 102.738 272.013 83.374 273.95L82.7831 274.008C62.9471 275.899 45.3493 274.35 48.5427 264.345C51.7368 254.339 41.964 189.892 51.1283 185.44L65.8445 179.179Z" fill="white"/>
<path id="Path_21" fill-rule="evenodd" clip-rule="evenodd" d="M86.666 193.946C83.8056 200.173 89.487 216.378 103.71 242.561L103.886 236.712C104.351 222.111 105.036 204.315 104.177 195.359C95.1931 188.56 89.3566 188.088 86.666 193.946Z" fill="black" fill-opacity="0.159856"/>
<path id="Rectangle_33" fill-rule="evenodd" clip-rule="evenodd" d="M86.4505 177.47C85.2494 177.142 65.1366 177.47 64.3375 177.47C63.5384 177.47 63.5384 180.887 64.3375 180.887C64.8262 180.887 71.0636 180.794 86.452 180.608C87.8406 180.591 91.5449 182.162 91.5449 182.162C91.5449 182.162 87.6516 177.797 86.4505 177.47Z" fill="#D2000F"/>
</g>
<g id="Group 8">
<path id="Path_22" fill-rule="evenodd" clip-rule="evenodd" d="M164.474 236.869C164.474 236.869 175.004 238.541 176.99 236.899C178.976 235.257 186.888 224.097 186.024 222.176C185.16 220.256 177.941 224.318 177.326 223.096C176.535 221.528 180.618 215.931 177.04 215.605C176.119 215.521 175.468 218.966 172.874 221.234C170.281 223.504 164.021 228.537 164.021 228.537L164.474 236.869Z" fill="url(#paint7_linear_5796_147540)"/>
<path id="Path_23" fill-rule="evenodd" clip-rule="evenodd" d="M100.84 187.739C109.94 196.398 122.824 216.844 125.57 218.645C128.315 220.447 162.659 224.08 165.893 227.013C168.594 229.462 168.837 236.916 165.893 238.984C162.948 241.051 124.281 238.28 117.189 236.213C110.097 234.147 97.9504 215.214 92.5245 209.304C77.3505 192.777 91.74 179.081 100.84 187.739Z" fill="white"/>
<path id="Path 53" d="M162.32 225.812C164.021 227.802 164.878 230.701 164.021 236.365" stroke="#D2000F" stroke-linecap="round"/>
</g>
</g>
</g>
</g>
<defs>
<linearGradient id="paint0_linear_5796_147540" x1="68.308" y1="350.158" x2="344.294" y2="497.571" gradientUnits="userSpaceOnUse">
<stop stop-color="#FAFEFF"/>
<stop offset="1" stop-color="#B5B5B5"/>
</linearGradient>
<linearGradient id="paint1_linear_5796_147540" x1="167.216" y1="148.58" x2="326.456" y2="302.002" gradientUnits="userSpaceOnUse">
<stop stop-color="#FAFEFF"/>
<stop offset="1" stop-color="#C0C0C0"/>
</linearGradient>
<linearGradient id="paint2_linear_5796_147540" x1="456.652" y1="111.048" x2="456.652" y2="82.118" gradientUnits="userSpaceOnUse">
<stop stop-color="#F8FDFF"/>
<stop offset="1" stop-color="#AAD4FF"/>
</linearGradient>
<linearGradient id="paint3_linear_5796_147540" x1="100.115" y1="139.896" x2="96.9866" y2="182.184" gradientUnits="userSpaceOnUse">
<stop stop-color="#FDC6C6"/>
<stop offset="1" stop-color="#FAB2B2"/>
</linearGradient>
<linearGradient id="paint4_linear_5796_147540" x1="96.5097" y1="147.736" x2="58.6938" y2="147.736" gradientUnits="userSpaceOnUse">
<stop stop-color="#3F4044"/>
<stop offset="1" stop-color="#222735"/>
</linearGradient>
<linearGradient id="paint5_linear_5796_147540" x1="92.497" y1="178.401" x2="77.7616" y2="180.713" gradientUnits="userSpaceOnUse">
<stop stop-color="#4D63A0"/>
<stop offset="1" stop-color="#222735"/>
</linearGradient>
<linearGradient id="paint6_linear_5796_147540" x1="21.1953" y1="166.019" x2="17.2004" y2="201.622" gradientUnits="userSpaceOnUse">
<stop stop-color="#FDC6C6"/>
<stop offset="1" stop-color="#FAB2B2"/>
</linearGradient>
<linearGradient id="paint7_linear_5796_147540" x1="189.909" y1="210.244" x2="188.22" y2="236.497" gradientUnits="userSpaceOnUse">
<stop stop-color="#FDC6C6"/>
<stop offset="1" stop-color="#FAB2B2"/>
</linearGradient>
</defs>
</svg>
