<svg width="24" height="25" viewBox="0 0 24 25" fill="none" xmlns="http://www.w3.org/2000/svg">
<g clip-path="url(#clip0_4379_1992)">
<path d="M15.402 21.9902V15.0242H17.735L18.084 12.3162H15.402V10.5882C15.402 9.80423 15.62 9.26923 16.744 9.26923H18.178V6.84723C17.4838 6.77358 16.7861 6.73786 16.088 6.74023C14.021 6.74023 12.606 8.00223 12.606 10.3202V12.3162H10.268V15.0242H12.606V21.9902H4C3.73478 21.9902 3.48043 21.8849 3.29289 21.6973C3.10536 21.5098 3 21.2555 3 20.9902V4.99023C3 4.72502 3.10536 4.47066 3.29289 4.28313C3.48043 4.09559 3.73478 3.99023 4 3.99023H20C20.2652 3.99023 20.5196 4.09559 20.7071 4.28313C20.8946 4.47066 21 4.72502 21 4.99023V20.9902C21 21.2555 20.8946 21.5098 20.7071 21.6973C20.5196 21.8849 20.2652 21.9902 20 21.9902H15.402Z" fill="#457B9D"/>
</g>
<defs>
<clipPath id="clip0_4379_1992">
<rect width="24" height="24" fill="white" transform="translate(0 0.990234)"/>
</clipPath>
</defs>
</svg>
