<svg width="22" height="26" viewBox="0 0 22 26" fill="none" xmlns="http://www.w3.org/2000/svg">
<path d="M4.02638 6.90968C5.92378 5.38945 8.28349 4.56283 10.7148 4.56671C13.2447 4.56671 15.5698 5.44294 17.4032 6.90968L19.133 5.17984L20.8164 6.86325L19.0866 8.59309C20.3458 10.1695 21.1344 12.0695 21.3615 14.0743C21.5886 16.0791 21.245 18.1073 20.3703 19.9255C19.4956 21.7436 18.1254 23.2779 16.4172 24.3517C14.709 25.4254 12.7324 25.9951 10.7148 25.9951C8.69716 25.9951 6.72053 25.4254 5.01237 24.3517C3.30421 23.2779 1.93394 21.7436 1.05925 19.9255C0.184557 18.1073 -0.159005 16.0791 0.0680988 14.0743C0.295202 12.0695 1.08374 10.1695 2.34297 8.59309L0.61313 6.86444L2.29654 5.18103L4.02638 6.91087V6.90968ZM11.9053 14.091V8.72762L5.95266 16.472H9.52426V21.8294L15.4769 14.091H11.9053ZM5.95266 0.995117H15.4769V3.37618H5.95266V0.995117Z" fill="#1F2855"/>
</svg>
