<svg width="14" height="15" viewBox="0 0 14 15" fill="none" xmlns="http://www.w3.org/2000/svg">
<path d="M9.15768 7.90817L5.65768 11.4082C5.54102 11.5248 5.42435 11.5832 5.24935 11.5832C5.07435 11.5832 4.95768 11.5248 4.84102 11.4082C4.60768 11.1748 4.60768 10.8248 4.84102 10.5915L7.93268 7.49984L4.84102 4.40817C4.60768 4.17484 4.60768 3.82484 4.84102 3.5915C5.07435 3.35817 5.42435 3.35817 5.65768 3.5915L9.15768 7.0915C9.39102 7.32484 9.39102 7.67484 9.15768 7.90817Z" fill="#457B9D"/>
<mask id="mask0_2142_214434" style="mask-type:alpha" maskUnits="userSpaceOnUse" x="4" y="3" width="6" height="9">
<path d="M9.15768 7.90817L5.65768 11.4082C5.54102 11.5248 5.42435 11.5832 5.24935 11.5832C5.07435 11.5832 4.95768 11.5248 4.84102 11.4082C4.60768 11.1748 4.60768 10.8248 4.84102 10.5915L7.93268 7.49984L4.84102 4.40817C4.60768 4.17484 4.60768 3.82484 4.84102 3.5915C5.07435 3.35817 5.42435 3.35817 5.65768 3.5915L9.15768 7.0915C9.39102 7.32484 9.39102 7.67484 9.15768 7.90817Z" fill="white"/>
</mask>
<g mask="url(#mask0_2142_214434)">
<rect y="0.5" width="14" height="14" fill="#457B9D"/>
</g>
</svg>
