<svg width="27" height="26" viewBox="0 0 27 26" fill="none" xmlns="http://www.w3.org/2000/svg">
<path fill-rule="evenodd" clip-rule="evenodd" d="M3.38873 5.89303C3.70715 5.57461 4.13172 5.46847 4.55628 5.68075C4.66242 5.68075 4.76856 5.78689 4.8747 5.89303C5.08698 6.10531 5.19312 6.3176 5.19312 6.63602C5.19312 6.95444 5.08698 7.16672 4.8747 7.379C4.66242 7.59128 4.45014 7.69742 4.13172 7.69742H3.91944C3.81329 7.59128 3.8133 7.59128 3.70715 7.59128C3.65408 7.59128 3.62755 7.56474 3.60101 7.53821C3.57448 7.51167 3.54794 7.48514 3.49487 7.48514L3.38873 7.379C3.33566 7.32593 3.30913 7.27286 3.28259 7.21979C3.25606 7.16672 3.22952 7.11365 3.17645 7.06058C3.07031 6.95444 3.07031 6.74216 3.07031 6.63602C3.07031 6.52988 3.07031 6.3176 3.17645 6.21146C3.17645 6.10531 3.28259 5.99917 3.38873 5.89303L3.38873 5.89303ZM9.43873 5.57461C8.80189 5.57461 8.37733 5.99917 8.37733 6.63602C8.37733 7.27286 8.80189 7.69742 9.43873 7.69742H23.237C23.8738 7.69742 24.2984 7.27286 24.2984 6.63602C24.2984 5.99917 23.8738 5.57461 23.237 5.57461H9.43873ZM9.43873 11.943H23.237C23.8738 11.943 24.2984 12.3676 24.2984 13.0044C24.2984 13.6413 23.8738 14.0658 23.237 14.0658H9.43873C8.80189 14.0658 8.37733 13.6413 8.37733 13.0044C8.37733 12.3676 8.80189 11.943 9.43873 11.943ZM23.237 18.3115H9.43873C8.80189 18.3115 8.37733 18.736 8.37733 19.3729C8.37733 20.0097 8.80189 20.4343 9.43873 20.4343H23.237C23.8738 20.4343 24.2984 20.0097 24.2984 19.3729C24.2984 18.736 23.8738 18.3115 23.237 18.3115ZM5.08698 12.5799C5.08698 12.5268 5.06044 12.5003 5.03391 12.4737C5.00737 12.4472 4.98084 12.4207 4.98084 12.3676C4.98084 12.2615 4.8747 12.2615 4.8747 12.2615C4.55628 11.943 4.13172 11.8369 3.70715 12.0492C3.65408 12.1022 3.60101 12.1288 3.54794 12.1553C3.49487 12.1819 3.4418 12.2084 3.38873 12.2615L3.28259 12.3676C3.28259 12.4207 3.25606 12.4472 3.22952 12.4737C3.20299 12.5003 3.17645 12.5268 3.17645 12.5799C3.17645 12.625 3.17645 12.6509 3.16831 12.674C3.15729 12.7052 3.13135 12.7311 3.07031 12.7922V13.0044C3.07031 13.3229 3.17645 13.5351 3.38873 13.7474C3.60101 13.9597 3.81329 14.0658 4.13172 14.0658C4.45014 14.0658 4.66242 13.9597 4.8747 13.7474C5.08698 13.5351 5.19312 13.3229 5.19312 13.0044V12.7922C5.19312 12.7391 5.16658 12.7126 5.14005 12.686C5.11351 12.6595 5.08698 12.6329 5.08698 12.5799ZM3.17645 18.9483C3.17645 18.8422 3.28259 18.736 3.38873 18.6299C3.8133 18.2053 4.45014 18.2053 4.8747 18.6299C5.08698 18.8422 5.19312 19.0544 5.19312 19.3729C5.19312 19.6913 5.08698 19.9036 4.8747 20.1158C4.66242 20.3281 4.45014 20.4343 4.13172 20.4343C3.81329 20.4343 3.60101 20.3281 3.38873 20.1158C3.17645 19.9036 3.07031 19.6913 3.07031 19.3729C3.07031 19.2667 3.07031 19.0544 3.17645 18.9483Z" fill="black"/>
<mask id="mask0_2142_214457" style="mask-type:alpha" maskUnits="userSpaceOnUse" x="3" y="5" width="22" height="16">
<path fill-rule="evenodd" clip-rule="evenodd" d="M3.38873 5.89303C3.70715 5.57461 4.13172 5.46847 4.55628 5.68075C4.66242 5.68075 4.76856 5.78689 4.8747 5.89303C5.08698 6.10531 5.19312 6.3176 5.19312 6.63602C5.19312 6.95444 5.08698 7.16672 4.8747 7.379C4.66242 7.59128 4.45014 7.69742 4.13172 7.69742H3.91944C3.81329 7.59128 3.8133 7.59128 3.70715 7.59128C3.65408 7.59128 3.62755 7.56474 3.60101 7.53821C3.57448 7.51167 3.54794 7.48514 3.49487 7.48514L3.38873 7.379C3.33566 7.32593 3.30913 7.27286 3.28259 7.21979C3.25606 7.16672 3.22952 7.11365 3.17645 7.06058C3.07031 6.95444 3.07031 6.74216 3.07031 6.63602C3.07031 6.52988 3.07031 6.3176 3.17645 6.21146C3.17645 6.10531 3.28259 5.99917 3.38873 5.89303L3.38873 5.89303ZM9.43873 5.57461C8.80189 5.57461 8.37733 5.99917 8.37733 6.63602C8.37733 7.27286 8.80189 7.69742 9.43873 7.69742H23.237C23.8738 7.69742 24.2984 7.27286 24.2984 6.63602C24.2984 5.99917 23.8738 5.57461 23.237 5.57461H9.43873ZM9.43873 11.943H23.237C23.8738 11.943 24.2984 12.3676 24.2984 13.0044C24.2984 13.6413 23.8738 14.0658 23.237 14.0658H9.43873C8.80189 14.0658 8.37733 13.6413 8.37733 13.0044C8.37733 12.3676 8.80189 11.943 9.43873 11.943ZM23.237 18.3115H9.43873C8.80189 18.3115 8.37733 18.736 8.37733 19.3729C8.37733 20.0097 8.80189 20.4343 9.43873 20.4343H23.237C23.8738 20.4343 24.2984 20.0097 24.2984 19.3729C24.2984 18.736 23.8738 18.3115 23.237 18.3115ZM5.08698 12.5799C5.08698 12.5268 5.06044 12.5003 5.03391 12.4737C5.00737 12.4472 4.98084 12.4207 4.98084 12.3676C4.98084 12.2615 4.8747 12.2615 4.8747 12.2615C4.55628 11.943 4.13172 11.8369 3.70715 12.0492C3.65408 12.1022 3.60101 12.1288 3.54794 12.1553C3.49487 12.1819 3.4418 12.2084 3.38873 12.2615L3.28259 12.3676C3.28259 12.4207 3.25606 12.4472 3.22952 12.4737C3.20299 12.5003 3.17645 12.5268 3.17645 12.5799C3.17645 12.625 3.17645 12.6509 3.16831 12.674C3.15729 12.7052 3.13135 12.7311 3.07031 12.7922V13.0044C3.07031 13.3229 3.17645 13.5351 3.38873 13.7474C3.60101 13.9597 3.81329 14.0658 4.13172 14.0658C4.45014 14.0658 4.66242 13.9597 4.8747 13.7474C5.08698 13.5351 5.19312 13.3229 5.19312 13.0044V12.7922C5.19312 12.7391 5.16658 12.7126 5.14005 12.686C5.11351 12.6595 5.08698 12.6329 5.08698 12.5799ZM3.17645 18.9483C3.17645 18.8422 3.28259 18.736 3.38873 18.6299C3.8133 18.2053 4.45014 18.2053 4.8747 18.6299C5.08698 18.8422 5.19312 19.0544 5.19312 19.3729C5.19312 19.6913 5.08698 19.9036 4.8747 20.1158C4.66242 20.3281 4.45014 20.4343 4.13172 20.4343C3.81329 20.4343 3.60101 20.3281 3.38873 20.1158C3.17645 19.9036 3.07031 19.6913 3.07031 19.3729C3.07031 19.2667 3.07031 19.0544 3.17645 18.9483Z" fill="white"/>
</mask>
<g mask="url(#mask0_2142_214457)">
<rect x="0.947266" y="0.263184" width="25.4737" height="25.4737" fill="#0093AD"/>
</g>
</svg>
