<svg width="26" height="26" viewBox="0 0 26 26" fill="none" xmlns="http://www.w3.org/2000/svg">
<path fill-rule="evenodd" clip-rule="evenodd" d="M3.4989 2.38623H10.9287C11.5656 2.38623 11.9901 2.81079 11.9901 3.44763V10.8775C11.9901 11.5143 11.5656 11.9389 10.9287 11.9389H3.4989C2.86206 11.9389 2.4375 11.5143 2.4375 10.8775V3.44763C2.4375 2.81079 2.86206 2.38623 3.4989 2.38623ZM4.56031 9.81606H9.86732V4.50904H4.56031V9.81606ZM22.6042 2.38623H15.1743C14.5375 2.38623 14.1129 2.81079 14.1129 3.44763V10.8775C14.1129 11.5143 14.5375 11.9389 15.1743 11.9389H22.6042C23.241 11.9389 23.6656 11.5143 23.6656 10.8775V3.44763C23.6656 2.81079 23.241 2.38623 22.6042 2.38623ZM16.2357 9.81606H21.5428V4.50904H16.2357V9.81606ZM22.6042 14.0617H15.1743C14.5375 14.0617 14.1129 14.4862 14.1129 15.1231V22.5529C14.1129 23.1897 14.5375 23.6143 15.1743 23.6143H22.6042C23.241 23.6143 23.6656 23.1897 23.6656 22.5529V15.1231C23.6656 14.4862 23.241 14.0617 22.6042 14.0617ZM16.2357 21.4915H21.5428V16.1845H16.2357V21.4915ZM10.9287 14.0617H3.4989C2.86206 14.0617 2.4375 14.4862 2.4375 15.1231V22.5529C2.4375 23.1897 2.86206 23.6143 3.4989 23.6143H10.9287C11.5656 23.6143 11.9901 23.1897 11.9901 22.5529V15.1231C11.9901 14.4862 11.5656 14.0617 10.9287 14.0617ZM4.56031 21.4915H9.86732V16.1845H4.56031V21.4915Z" fill="black"/>
<mask id="mask0_2142_214459" style="mask-type:alpha" maskUnits="userSpaceOnUse" x="2" y="2" width="22" height="22">
<path fill-rule="evenodd" clip-rule="evenodd" d="M3.4989 2.38623H10.9287C11.5656 2.38623 11.9901 2.81079 11.9901 3.44763V10.8775C11.9901 11.5143 11.5656 11.9389 10.9287 11.9389H3.4989C2.86206 11.9389 2.4375 11.5143 2.4375 10.8775V3.44763C2.4375 2.81079 2.86206 2.38623 3.4989 2.38623ZM4.56031 9.81606H9.86732V4.50904H4.56031V9.81606ZM22.6042 2.38623H15.1743C14.5375 2.38623 14.1129 2.81079 14.1129 3.44763V10.8775C14.1129 11.5143 14.5375 11.9389 15.1743 11.9389H22.6042C23.241 11.9389 23.6656 11.5143 23.6656 10.8775V3.44763C23.6656 2.81079 23.241 2.38623 22.6042 2.38623ZM16.2357 9.81606H21.5428V4.50904H16.2357V9.81606ZM22.6042 14.0617H15.1743C14.5375 14.0617 14.1129 14.4862 14.1129 15.1231V22.5529C14.1129 23.1897 14.5375 23.6143 15.1743 23.6143H22.6042C23.241 23.6143 23.6656 23.1897 23.6656 22.5529V15.1231C23.6656 14.4862 23.241 14.0617 22.6042 14.0617ZM16.2357 21.4915H21.5428V16.1845H16.2357V21.4915ZM10.9287 14.0617H3.4989C2.86206 14.0617 2.4375 14.4862 2.4375 15.1231V22.5529C2.4375 23.1897 2.86206 23.6143 3.4989 23.6143H10.9287C11.5656 23.6143 11.9901 23.1897 11.9901 22.5529V15.1231C11.9901 14.4862 11.5656 14.0617 10.9287 14.0617ZM4.56031 21.4915H9.86732V16.1845H4.56031V21.4915Z" fill="white"/>
</mask>
<g mask="url(#mask0_2142_214459)">
<rect x="0.314453" y="0.263184" width="25.4737" height="25.4737" fill="#0093AD"/>
</g>
</svg>
