<svg width="24" height="25" viewBox="0 0 24 25" fill="none" xmlns="http://www.w3.org/2000/svg">
<g clip-path="url(#clip0_4379_1988)">
<path d="M12 2.99023C14.717 2.99023 15.056 3.00023 16.122 3.05023C17.187 3.10023 17.912 3.26723 18.55 3.51523C19.21 3.76923 19.766 4.11323 20.322 4.66823C20.8305 5.16813 21.224 5.77282 21.475 6.44023C21.722 7.07723 21.89 7.80323 21.94 8.86823C21.987 9.93423 22 10.2732 22 12.9902C22 15.7072 21.99 16.0462 21.94 17.1122C21.89 18.1772 21.722 18.9022 21.475 19.5402C21.2247 20.208 20.8311 20.8129 20.322 21.3122C19.822 21.8206 19.2173 22.214 18.55 22.4652C17.913 22.7122 17.187 22.8802 16.122 22.9302C15.056 22.9772 14.717 22.9902 12 22.9902C9.283 22.9902 8.944 22.9802 7.878 22.9302C6.813 22.8802 6.088 22.7122 5.45 22.4652C4.78233 22.2147 4.17753 21.8212 3.678 21.3122C3.16941 20.8124 2.77593 20.2077 2.525 19.5402C2.277 18.9032 2.11 18.1772 2.06 17.1122C2.013 16.0462 2 15.7072 2 12.9902C2 10.2732 2.01 9.93423 2.06 8.86823C2.11 7.80223 2.277 7.07823 2.525 6.44023C2.77524 5.77241 3.1688 5.16756 3.678 4.66823C4.17767 4.15947 4.78243 3.76596 5.45 3.51523C6.088 3.26723 6.812 3.10023 7.878 3.05023C8.944 3.00323 9.283 2.99023 12 2.99023ZM12 7.99023C10.6739 7.99023 9.40215 8.51702 8.46447 9.4547C7.52678 10.3924 7 11.6642 7 12.9902C7 14.3163 7.52678 15.5881 8.46447 16.5258C9.40215 17.4635 10.6739 17.9902 12 17.9902C13.3261 17.9902 14.5979 17.4635 15.5355 16.5258C16.4732 15.5881 17 14.3163 17 12.9902C17 11.6642 16.4732 10.3924 15.5355 9.4547C14.5979 8.51702 13.3261 7.99023 12 7.99023ZM18.5 7.74023C18.5 7.40871 18.3683 7.09077 18.1339 6.85635C17.8995 6.62193 17.5815 6.49023 17.25 6.49023C16.9185 6.49023 16.6005 6.62193 16.3661 6.85635C16.1317 7.09077 16 7.40871 16 7.74023C16 8.07175 16.1317 8.3897 16.3661 8.62412C16.6005 8.85854 16.9185 8.99023 17.25 8.99023C17.5815 8.99023 17.8995 8.85854 18.1339 8.62412C18.3683 8.3897 18.5 8.07175 18.5 7.74023ZM12 9.99023C12.7956 9.99023 13.5587 10.3063 14.1213 10.8689C14.6839 11.4315 15 12.1946 15 12.9902C15 13.7859 14.6839 14.5489 14.1213 15.1116C13.5587 15.6742 12.7956 15.9902 12 15.9902C11.2044 15.9902 10.4413 15.6742 9.87868 15.1116C9.31607 14.5489 9 13.7859 9 12.9902C9 12.1946 9.31607 11.4315 9.87868 10.8689C10.4413 10.3063 11.2044 9.99023 12 9.99023Z" fill="#457B9D"/>
</g>
<defs>
<clipPath id="clip0_4379_1988">
<rect width="24" height="24" fill="white" transform="translate(0 0.990234)"/>
</clipPath>
</defs>
</svg>
