<svg width="20" height="21" viewBox="0 0 20 21" fill="none" xmlns="http://www.w3.org/2000/svg">
<mask id="mask0_695_91176" style="mask-type:alpha" maskUnits="userSpaceOnUse" x="0" y="0" width="20" height="21">
<path fill-rule="evenodd" clip-rule="evenodd" d="M14.7 0.8L19.7 5.8C20.1 6.2 20.1 6.8 19.7 7.2L6.7 20.2C6.5 20.4 6.3 20.5 6 20.5H1C0.4 20.5 0 20.1 0 19.5V14.5C0 14.2 0.1 14 0.3 13.8L13.3 0.8C13.7 0.4 14.3 0.4 14.7 0.8ZM2 18.5H5.6L17.6 6.5L14 2.9L2 14.9V18.5Z" fill="white"/>
</mask>
<g mask="url(#mask0_695_91176)">
<rect x="-2" y="-1.5" width="24" height="24" fill="#D2000F"/>
</g>
</svg>
