  <svg width="25" height="29" viewBox="0 0 25 29" fill="none" xmlns="http://www.w3.org/2000/svg">
  <path fill-rule="evenodd" clip-rule="evenodd" d="M23.9582 21.2082C23.9582 21.8332 23.5415 22.2498 22.9165 22.2498H2.08317C1.45817 22.2498 1.0415 21.8332 1.0415 21.2082C1.0415 20.5832 1.45817 20.1665 2.08317 20.1665C3.229 20.1665 4.1665 19.229 4.1665 18.0832V12.8748C4.1665 8.2915 7.9165 4.5415 12.4998 4.5415C17.0832 4.5415 20.8332 8.2915 20.8332 12.8748V18.0832C20.8332 19.229 21.7707 20.1665 22.9165 20.1665C23.5415 20.1665 23.9582 20.5832 23.9582 21.2082ZM15.2082 25.8957C14.5832 26.9373 13.5415 27.4582 12.4998 27.4582C11.979 27.4582 11.4582 27.354 10.9373 27.0415C10.4165 26.729 10.104 26.4165 9.7915 25.8957C9.479 25.3748 9.68734 24.7498 10.2082 24.4373C10.729 24.1248 11.354 24.3332 11.6665 24.854C11.698 24.8855 11.7296 24.9266 11.764 24.9715C11.8433 25.0748 11.9379 25.198 12.0832 25.2707C12.604 25.5832 13.229 25.3748 13.5415 24.854C13.854 24.3332 14.479 24.229 14.9998 24.4373C15.5207 24.6457 15.5207 25.3748 15.2082 25.8957ZM18.7498 18.0832C18.7498 18.8123 18.9582 19.5415 19.2707 20.1665H5.729C6.0415 19.5415 6.24984 18.8123 6.24984 18.0832V12.8748C6.24984 9.43734 9.06234 6.62484 12.4998 6.62484C15.9373 6.62484 18.7498 9.43734 18.7498 12.8748V18.0832Z" fill="white" />
  <mask id="mask0_695_91176" style="mask-type:alpha" maskUnits="userSpaceOnUse" x="1" y="4" width="23" height="24">
    <path fill-rule="evenodd" clip-rule="evenodd" d="M23.9582 21.2082C23.9582 21.8332 23.5415 22.2498 22.9165 22.2498H2.08317C1.45817 22.2498 1.0415 21.8332 1.0415 21.2082C1.0415 20.5832 1.45817 20.1665 2.08317 20.1665C3.229 20.1665 4.1665 19.229 4.1665 18.0832V12.8748C4.1665 8.2915 7.9165 4.5415 12.4998 4.5415C17.0832 4.5415 20.8332 8.2915 20.8332 12.8748V18.0832C20.8332 19.229 21.7707 20.1665 22.9165 20.1665C23.5415 20.1665 23.9582 20.5832 23.9582 21.2082ZM15.2082 25.8957C14.5832 26.9373 13.5415 27.4582 12.4998 27.4582C11.979 27.4582 11.4582 27.354 10.9373 27.0415C10.4165 26.729 10.104 26.4165 9.7915 25.8957C9.479 25.3748 9.68734 24.7498 10.2082 24.4373C10.729 24.1248 11.354 24.3332 11.6665 24.854C11.698 24.8855 11.7296 24.9266 11.764 24.9715C11.8433 25.0748 11.9379 25.198 12.0832 25.2707C12.604 25.5832 13.229 25.3748 13.5415 24.854C13.854 24.3332 14.479 24.229 14.9998 24.4373C15.5207 24.6457 15.5207 25.3748 15.2082 25.8957ZM18.7498 18.0832C18.7498 18.8123 18.9582 19.5415 19.2707 20.1665H5.729C6.0415 19.5415 6.24984 18.8123 6.24984 18.0832V12.8748C6.24984 9.43734 9.06234 6.62484 12.4998 6.62484C15.9373 6.62484 18.7498 9.43734 18.7498 12.8748V18.0832Z" fill="white" />
  </mask>
  <g mask="url(#mask0_695_91176)">
    <rect y="3.5" width="25" height="25" fill="white" />
  </g>
  <rect x="9.5" y="1" width="14" height="14" rx="7" fill="#25A0AB" />
  <rect x="9.5" y="1" width="14" height="14" rx="7" stroke="white" />
  <text x="13" y="11" width="10" height="10" rx="1" fill="white" style="font-size: 8px" class="font-medium"></text>
</svg>

