<svg width="16" height="17" viewBox="0 0 16 17" fill="none" xmlns="http://www.w3.org/2000/svg">
<mask id="mask0_695_91176" style="mask-type:alpha" maskUnits="userSpaceOnUse" x="0" y="0" width="16" height="17">
<path d="M16 8.5C16 9.1 15.6 9.5 15 9.5H9V15.5C9 16.1 8.6 16.5 8 16.5C7.4 16.5 7 16.1 7 15.5V9.5H1C0.4 9.5 0 9.1 0 8.5C0 7.9 0.4 7.5 1 7.5H7V1.5C7 0.9 7.4 0.5 8 0.5C8.6 0.5 9 0.9 9 1.5V7.5H15C15.6 7.5 16 7.9 16 8.5Z" fill="white"/>
</mask>
<g mask="url(#mask0_695_91176)">
<rect x="-4" y="-3.5" width="24" height="24" fill="#1F2855"/>
</g>
</svg>
