<svg width="16" height="25" viewBox="0 0 16 25" fill="none" xmlns="http://www.w3.org/2000/svg">
<mask id="mask0_695_91176" style="mask-type:alpha" maskUnits="userSpaceOnUse" x="0" y="0" width="16" height="25">
<path fill-rule="evenodd" clip-rule="evenodd" d="M8 16.5C10.2 16.5 12 14.7 12 12.5V4.5C12 2.3 10.2 0.5 8 0.5C5.8 0.5 4 2.3 4 4.5V12.5C4 14.7 5.8 16.5 8 16.5ZM6 4.5C6 3.4 6.9 2.5 8 2.5C9.1 2.5 10 3.4 10 4.5V12.5C10 13.6 9.1 14.5 8 14.5C6.9 14.5 6 13.6 6 12.5V4.5ZM16 12.5V10.5C16 9.9 15.6 9.5 15 9.5C14.4 9.5 14 9.9 14 10.5V12.5C14 15.8 11.3 18.5 8 18.5C4.7 18.5 2 15.8 2 12.5V10.5C2 9.9 1.6 9.5 1 9.5C0.4 9.5 0 9.9 0 10.5V12.5C0 16.5 3.1 19.9 7 20.4V22.5H4C3.4 22.5 3 22.9 3 23.5C3 24.1 3.4 24.5 4 24.5H12C12.6 24.5 13 24.1 13 23.5C13 22.9 12.6 22.5 12 22.5H9V20.4C12.9 19.9 16 16.6 16 12.5Z" fill="white"/>
</mask>
<g mask="url(#mask0_695_91176)">
<rect x="-4" y="0.5" width="24" height="24" fill="#0093AD"/>
</g>
</svg>
