<svg width="22" height="22" viewBox="0 0 22 22" fill="none" xmlns="http://www.w3.org/2000/svg">
<mask id="mask0_695_91176" style="mask-type:alpha" maskUnits="userSpaceOnUse" x="0" y="0" width="22" height="22">
<path fill-rule="evenodd" clip-rule="evenodd" d="M11 22C17.1 22 22 17.1 22 11C22 4.9 17.1 0 11 0C4.9 0 0 4.9 0 11C0 17.1 4.9 22 11 22ZM11.2 12.9C11.6 12.8 14.9 11.6 14.9 9C14.9 7.3 13.8 5.8 12.2 5.3C10.1 4.5 7.8 5.6 7.1 7.7C7 8.2 7.2 8.8 7.7 8.8C8.2 9 8.8 8.7 9 8.2C9.4 7.2 10.6 6.6 11.6 7C12.4 7.3 12.9 8 12.9 8.9C12.9 10 11.2 10.8 10.6 11C10.1 11.2 9.8 11.8 10 12.3C10.1 12.7 10.5 13 10.9 13C11 13 11.1 13 11.2 12.9ZM20 11C20 6 16 2 11 2C6 2 2 6 2 11C2 16 6 20 11 20C16 20 20 16 20 11ZM11.5 15.2C11.6 15.2 11.7 15.3 11.7 15.3C11.8 15.4 11.9 15.5 11.8 15.6C11.9 15.7 11.9 15.9 11.9 16C11.9 16.3 11.8 16.5 11.6 16.7C11.4 16.9 11.2 17 10.9 17C10.6 17 10.4 16.9 10.2 16.7C10 16.5 9.9 16.3 9.9 16C9.9 15.8828 9.93431 15.8 9.96274 15.7314C9.98284 15.6828 10 15.6414 10 15.6C10 15.5 10.1 15.4 10.2 15.3C10.3 15.2 10.4 15.1 10.5 15.1C10.7 15 10.9 15 11.1 15C11.1575 15.0575 11.1819 15.0819 11.2113 15.0923C11.2331 15.1 11.2575 15.1 11.3 15.1C11.35 15.1 11.375 15.125 11.4 15.15C11.425 15.175 11.45 15.2 11.5 15.2Z" fill="white"/>
</mask>
<g mask="url(#mask0_695_91176)">
<rect x="-1" y="-1" width="24" height="24" fill="#6E6B7B"/>
</g>
</svg>
