<svg width="24" height="25" viewBox="0 0 24 25" fill="none" xmlns="http://www.w3.org/2000/svg">
<g clip-path="url(#clip0_4379_2000)">
<path d="M21.543 7.48823C22 9.27023 22 12.9902 22 12.9902C22 12.9902 22 16.7102 21.543 18.4922C21.289 19.4772 20.546 20.2522 19.605 20.5142C17.896 20.9902 12 20.9902 12 20.9902C12 20.9902 6.107 20.9902 4.395 20.5142C3.45 20.2482 2.708 19.4742 2.457 18.4922C2 16.7102 2 12.9902 2 12.9902C2 12.9902 2 9.27023 2.457 7.48823C2.711 6.50323 3.454 5.72823 4.395 5.46623C6.107 4.99023 12 4.99023 12 4.99023C12 4.99023 17.896 4.99023 19.605 5.46623C20.55 5.73223 21.292 6.50623 21.543 7.48823V7.48823ZM10 16.4902L16 12.9902L10 9.49023V16.4902Z" fill="#457B9D"/>
</g>
<defs>
<clipPath id="clip0_4379_2000">
<rect width="24" height="24" fill="white" transform="translate(0 0.990234)"/>
</clipPath>
</defs>
</svg>
