<svg width="18" height="23" viewBox="0 0 18 23" fill="none" xmlns="http://www.w3.org/2000/svg">
<mask id="mask0_695_91176" style="mask-type:alpha" maskUnits="userSpaceOnUse" x="0" y="0" width="18" height="23">
<path fill-rule="evenodd" clip-rule="evenodd" d="M17.8 6.95C17.825 7 17.85 7.05 17.9 7.1C18 7.2 18 7.4 18 7.5V19.5C18 21.2 16.7 22.5 15 22.5H3C1.3 22.5 0 21.2 0 19.5V3.5C0 1.8 1.3 0.5 3 0.5H11C11.1 0.5 11.3 0.5 11.4 0.6C11.5 0.6 11.6 0.7 11.7 0.8L17.7 6.8C17.75 6.85 17.775 6.9 17.8 6.95ZM14.6 6.5L12 3.9V6.5H14.6ZM15 20.5H3C2.4 20.5 2 20.1 2 19.5V3.5C2 2.9 2.4 2.5 3 2.5H10V7.5C10 8.1 10.4 8.5 11 8.5H16V19.5C16 20.1 15.6 20.5 15 20.5ZM13 13.5C13.6 13.5 14 13.1 14 12.5C14 11.9 13.6 11.5 13 11.5H5C4.4 11.5 4 11.9 4 12.5C4 13.1 4.4 13.5 5 13.5H13ZM14 16.5C14 17.1 13.6 17.5 13 17.5H5C4.4 17.5 4 17.1 4 16.5C4 15.9 4.4 15.5 5 15.5H13C13.6 15.5 14 15.9 14 16.5ZM5 7.5C4.4 7.5 4 7.9 4 8.5C4 9.1 4.4 9.5 5 9.5H7C7.6 9.5 8 9.1 8 8.5C8 7.9 7.6 7.5 7 7.5H5Z" fill="white"/>
</mask>
<g mask="url(#mask0_695_91176)">
<rect x="-3" y="-0.5" width="24" height="24" fill="#457B9D"/>
</g>
</svg>
