<svg width="25" height="24" viewBox="0 0 25 24" fill="none" xmlns="http://www.w3.org/2000/svg">
<mask id="mask0_695_91176" style="mask-type:alpha" maskUnits="userSpaceOnUse" x="0" y="0" width="26" height="24">
<path fill-rule="evenodd" clip-rule="evenodd" d="M4.3545 2.08333H1.04167C0.46637 2.08333 0 1.61696 0 1.04167C0 0.46637 0.46637 0 1.04167 0H5.20833C5.70482 0 6.1323 0.350401 6.22974 0.837232L7.10461 5.20833H23.9583C24.6119 5.20833 25.104 5.80316 24.9816 6.44513L23.3134 15.1925C23.0185 16.6773 21.7018 17.7371 20.2083 17.7083L10.1033 17.7081C8.58983 17.7371 7.27319 16.6773 6.97859 15.194L5.23832 6.49917C5.23126 6.47041 5.2254 6.44118 5.22078 6.41154L4.3545 2.08333ZM7.29167 21.8767C7.29167 23.1277 8.12432 23.9617 9.3733 23.9617C10.6223 23.9617 11.4549 23.1277 11.4549 21.8767C11.4549 20.6257 10.6223 19.7917 9.3733 19.7917C8.12432 19.7917 7.29167 20.6257 7.29167 21.8767ZM18.75 21.875C18.75 23.125 19.5827 23.9583 20.8316 23.9583C22.0806 23.9583 22.9133 23.125 22.9133 21.875C22.9133 20.625 22.0806 19.7917 20.8316 19.7917C19.5827 19.7917 18.75 20.625 18.75 21.875ZM9.02171 14.7866L7.52159 7.29167H22.6992L21.2684 14.7944C21.1717 15.2816 20.7328 15.6349 20.2283 15.6252L10.0833 15.625C9.55889 15.6349 9.12001 15.2816 9.02171 14.7866Z" fill="white"/>
</mask>
<g mask="url(#mask0_695_91176)">
<rect width="25" height="25" fill="white"/>
</g>
</svg>
