<svg width="21" height="22" viewBox="0 0 21 22" fill="none" xmlns="http://www.w3.org/2000/svg">
<path d="M5.5 10.5C6.95869 10.5 8.35764 11.0795 9.38909 12.1109C10.4205 13.1424 11 14.5413 11 16C11 17.4587 10.4205 18.8576 9.38909 19.8891C8.35764 20.9205 6.95869 21.5 5.5 21.5C4.04131 21.5 2.64236 20.9205 1.61091 19.8891C0.579463 18.8576 0 17.4587 0 16C0 14.5413 0.579463 13.1424 1.61091 12.1109C2.64236 11.0795 4.04131 10.5 5.5 10.5ZM15.749 0.5C16.3457 0.5 16.918 0.737053 17.34 1.15901C17.7619 1.58097 17.999 2.15326 17.999 2.75V18.25C17.999 18.8467 17.7619 19.419 17.34 19.841C16.918 20.2629 16.3457 20.5 15.749 20.5H10.189C10.6182 20.0545 10.9812 19.5497 11.267 19.001L15.749 19C15.9479 19 16.1387 18.921 16.2793 18.7803C16.42 18.6397 16.499 18.4489 16.499 18.25V2.75C16.499 2.55109 16.42 2.36032 16.2793 2.21967C16.1387 2.07902 15.9479 2 15.749 2H5.25C5.05109 2 4.86032 2.07902 4.71967 2.21967C4.57902 2.36032 4.5 2.55109 4.5 2.75V9.576C3.9848 9.6556 3.48113 9.7973 3 9.998V2.75C3 2.15326 3.23705 1.58097 3.65901 1.15901C4.08097 0.737053 4.65326 0.5 5.25 0.5H15.749ZM5.5 18.38C5.41589 18.3766 5.33196 18.3903 5.25326 18.4202C5.17455 18.45 5.10269 18.4955 5.04199 18.5538C4.98129 18.6121 4.93299 18.6821 4.9 18.7596C4.86701 18.837 4.85001 18.9203 4.85001 19.0045C4.85001 19.0887 4.86701 19.172 4.9 19.2494C4.93299 19.3269 4.98129 19.3969 5.04199 19.4552C5.10269 19.5135 5.17455 19.559 5.25326 19.5888C5.33196 19.6187 5.41589 19.6324 5.5 19.629C5.6613 19.6225 5.81385 19.5539 5.9257 19.4375C6.03754 19.3211 6.10001 19.1659 6.10001 19.0045C6.10001 18.8431 6.03754 18.6879 5.9257 18.5715C5.81385 18.4551 5.6613 18.3865 5.5 18.38ZM5.5 12.503C4.452 12.503 3.636 13.32 3.647 14.457C3.64833 14.5896 3.70228 14.7163 3.79698 14.8091C3.89169 14.9019 4.01939 14.9533 4.152 14.952C4.28461 14.9507 4.41126 14.8967 4.50409 14.802C4.59692 14.7073 4.64833 14.5796 4.647 14.447C4.641 13.869 5.007 13.503 5.5 13.503C5.972 13.503 6.353 13.895 6.353 14.453C6.353 14.677 6.278 14.843 6.036 15.13L5.936 15.243L5.671 15.533C5.187 16.075 5 16.425 5 17.001C5 17.1336 5.05268 17.2608 5.14645 17.3546C5.24021 17.4483 5.36739 17.501 5.5 17.501C5.63261 17.501 5.75979 17.4483 5.85355 17.3546C5.94732 17.2608 6 17.1336 6 17.001C6 16.768 6.076 16.598 6.324 16.306L6.424 16.191L6.69 15.901C7.168 15.366 7.353 15.019 7.353 14.453C7.353 13.349 6.531 12.503 5.5 12.503ZM19.75 13.502C19.9312 13.502 20.1063 13.5676 20.2429 13.6868C20.3795 13.8059 20.4684 13.9704 20.493 14.15L20.5 14.252V15.75C20.5 15.9312 20.4344 16.1063 20.3152 16.2429C20.1961 16.3795 20.0316 16.4684 19.852 16.493L19.75 16.5H19V13.502H19.75ZM19.75 9.502C19.9312 9.50201 20.1063 9.56764 20.2429 9.68677C20.3795 9.80589 20.4684 9.97045 20.493 10.15L20.5 10.252V11.75C20.5 11.9312 20.4344 12.1063 20.3152 12.2429C20.1961 12.3795 20.0316 12.4684 19.852 12.493L19.75 12.5H19V9.502H19.75ZM19.75 5.502C19.9312 5.50201 20.1063 5.56764 20.2429 5.68677C20.3795 5.80589 20.4684 5.97045 20.493 6.15L20.5 6.252V7.75C20.5 7.93124 20.4344 8.10634 20.3152 8.24293C20.1961 8.37952 20.0316 8.46835 19.852 8.493L19.75 8.5H19V5.502H19.75ZM14.249 3.5C14.4479 3.5 14.6387 3.57902 14.7793 3.71967C14.92 3.86032 14.999 4.05109 14.999 4.25V6.748C14.999 6.94691 14.92 7.13768 14.7793 7.27833C14.6387 7.41898 14.4479 7.498 14.249 7.498H6.75C6.55109 7.498 6.36032 7.41898 6.21967 7.27833C6.07902 7.13768 6 6.94691 6 6.748V4.25C6 4.05109 6.07902 3.86032 6.21967 3.71967C6.36032 3.57902 6.55109 3.5 6.75 3.5H14.249ZM13.499 5H7.5V5.998H13.499V5Z" fill="#7367F0"/>
</svg>
