<svg width="20" height="20" viewBox="0 0 20 20" fill="none" xmlns="http://www.w3.org/2000/svg">
<path d="M13.0833 14.4166C13.4167 14.75 13.4167 15.25 13.0833 15.5833C12.9167 15.75 12.75 15.8333 12.5 15.8333C12.25 15.8333 12.0833 15.75 11.9167 15.5833L6.91666 10.5833C6.58333 10.25 6.58333 9.74996 6.91666 9.41663L11.9167 4.41663C12.25 4.08329 12.75 4.08329 13.0833 4.41663C13.4167 4.74996 13.4167 5.24996 13.0833 5.58329L8.66666 9.99996L13.0833 14.4166Z" fill="#E22126"/>
<mask id="mask0_713_4078" style="mask-type:alpha" maskUnits="userSpaceOnUse" x="6" y="4" width="8" height="12">
<path d="M13.0833 14.4166C13.4167 14.75 13.4167 15.25 13.0833 15.5833C12.9167 15.75 12.75 15.8333 12.5 15.8333C12.25 15.8333 12.0833 15.75 11.9167 15.5833L6.91666 10.5833C6.58333 10.25 6.58333 9.74996 6.91666 9.41663L11.9167 4.41663C12.25 4.08329 12.75 4.08329 13.0833 4.41663C13.4167 4.74996 13.4167 5.24996 13.0833 5.58329L8.66666 9.99996L13.0833 14.4166Z" fill="white"/>
</mask>
<g mask="url(#mask0_713_4078)">
<rect width="20" height="20" fill="#E22126"/>
</g>
</svg>
