<svg width="20" height="20" viewBox="0 0 20 20" fill="none" xmlns="http://www.w3.org/2000/svg">
<mask id="mask0_695_91176" style="mask-type:alpha" maskUnits="userSpaceOnUse" x="0" y="0" width="20" height="20">
<path fill-rule="evenodd" clip-rule="evenodd" d="M1 0H8C8.6 0 9 0.4 9 1V8C9 8.6 8.6 9 8 9H1C0.4 9 0 8.6 0 8V1C0 0.4 0.4 0 1 0ZM2 7H7V2H2V7ZM19 0H12C11.4 0 11 0.4 11 1V8C11 8.6 11.4 9 12 9H19C19.6 9 20 8.6 20 8V1C20 0.4 19.6 0 19 0ZM13 7H18V2H13V7ZM19 11H12C11.4 11 11 11.4 11 12V19C11 19.6 11.4 20 12 20H19C19.6 20 20 19.6 20 19V12C20 11.4 19.6 11 19 11ZM13 18H18V13H13V18ZM8 11H1C0.4 11 0 11.4 0 12V19C0 19.6 0.4 20 1 20H8C8.6 20 9 19.6 9 19V12C9 11.4 8.6 11 8 11ZM2 18H7V13H2V18Z" fill="white"/>
</mask>
<g mask="url(#mask0_695_91176)">
<rect x="-2" y="-2" width="24" height="24" fill="#1F2855"/>
</g>
</svg>
