<svg width="14" height="15" viewBox="0 0 14 15" fill="none" xmlns="http://www.w3.org/2000/svg">
<path fill-rule="evenodd" clip-rule="evenodd" d="M12.5993 5.2933L7.34935 1.2146C7.11602 1.0398 6.82435 1.0398 6.64935 1.2146L1.39935 5.2933C1.22435 5.40983 1.16602 5.58463 1.16602 5.75943V12.1688C1.16602 13.1594 1.92435 13.9168 2.91602 13.9168H11.0827C12.0743 13.9168 12.8327 13.1594 12.8327 12.1688V5.75943C12.8327 5.58463 12.7743 5.40983 12.5993 5.2933ZM8.16602 8.09012V12.7515H5.83268V8.09012H8.16602ZM11.0827 12.7515C11.4327 12.7515 11.666 12.5184 11.666 12.1688V6.05077L6.99935 2.43821L2.33268 6.05077V12.1688C2.33268 12.5184 2.56602 12.7515 2.91602 12.7515H4.66602V7.50745C4.66602 7.15784 4.89935 6.92477 5.24935 6.92477H8.74935C9.09935 6.92477 9.33268 7.15784 9.33268 7.50745V12.7515H11.0827Z" fill="#457B9D"/>
<mask id="mask0_2142_214433" style="mask-type:alpha" maskUnits="userSpaceOnUse" x="1" y="1" width="12" height="13">
<path fill-rule="evenodd" clip-rule="evenodd" d="M12.5993 5.2933L7.34935 1.2146C7.11602 1.0398 6.82435 1.0398 6.64935 1.2146L1.39935 5.2933C1.22435 5.40983 1.16602 5.58463 1.16602 5.75943V12.1688C1.16602 13.1594 1.92435 13.9168 2.91602 13.9168H11.0827C12.0743 13.9168 12.8327 13.1594 12.8327 12.1688V5.75943C12.8327 5.58463 12.7743 5.40983 12.5993 5.2933ZM8.16602 8.09012V12.7515H5.83268V8.09012H8.16602ZM11.0827 12.7515C11.4327 12.7515 11.666 12.5184 11.666 12.1688V6.05077L6.99935 2.43821L2.33268 6.05077V12.1688C2.33268 12.5184 2.56602 12.7515 2.91602 12.7515H4.66602V7.50745C4.66602 7.15784 4.89935 6.92477 5.24935 6.92477H8.74935C9.09935 6.92477 9.33268 7.15784 9.33268 7.50745V12.7515H11.0827Z" fill="white"/>
</mask>
<g mask="url(#mask0_2142_214433)">
<rect y="0.5" width="14" height="14" fill="#D2000F"/>
</g>
</svg>
