<svg width="24" height="25" viewBox="0 0 24 25" fill="none" xmlns="http://www.w3.org/2000/svg">
<g clip-path="url(#clip0_4379_1996)">
<path d="M18.335 19.3292H15.67V15.1522C15.67 14.1562 15.65 12.8742 14.28 12.8742C12.891 12.8742 12.679 13.9582 12.679 15.0792V19.3292H10.013V10.7402H12.573V11.9102H12.608C12.966 11.2362 13.836 10.5232 15.136 10.5232C17.836 10.5232 18.336 12.3012 18.336 14.6142V19.3292H18.335ZM7.003 9.56523C6.79956 9.5655 6.59806 9.5256 6.41006 9.44784C6.22207 9.37008 6.05127 9.25597 5.90746 9.11207C5.76365 8.96817 5.64965 8.79729 5.57201 8.60925C5.49437 8.4212 5.4546 8.21968 5.455 8.01623C5.4552 7.71007 5.54618 7.41084 5.71644 7.15638C5.8867 6.90192 6.12859 6.70367 6.41153 6.58669C6.69447 6.4697 7.00574 6.43925 7.30598 6.49917C7.60622 6.5591 7.88196 6.70671 8.09831 6.92334C8.31466 7.13997 8.46191 7.41589 8.52145 7.71622C8.58099 8.01654 8.55013 8.32777 8.43278 8.61055C8.31543 8.89334 8.11687 9.13497 7.86219 9.3049C7.60751 9.47484 7.30817 9.56543 7.002 9.56523H7.003ZM8.339 19.3292H5.666V10.7402H8.34V19.3292H8.339ZM19.67 3.99023H4.329C3.593 3.99023 3 4.57023 3 5.28723V20.6932C3 21.4102 3.594 21.9902 4.328 21.9902H19.666C20.4 21.9902 21 21.4102 21 20.6932V5.28723C21 4.57023 20.4 3.99023 19.666 3.99023H19.669H19.67Z" fill="#457B9D"/>
</g>
<defs>
<clipPath id="clip0_4379_1996">
<rect width="24" height="24" fill="white" transform="translate(0 0.990234)"/>
</clipPath>
</defs>
</svg>
