<svg width="17" height="17" viewBox="0 0 17 17" fill="none" xmlns="http://www.w3.org/2000/svg">
<mask id="mask0_695_91176" style="mask-type:alpha" maskUnits="userSpaceOnUse" x="0" y="0" width="17" height="17">
<path d="M16.8332 8.49984C16.8332 9.12484 16.4165 9.5415 15.7915 9.5415H9.5415V15.7915C9.5415 16.4165 9.12484 16.8332 8.49984 16.8332C7.87484 16.8332 7.45817 16.4165 7.45817 15.7915V9.5415H1.20817C0.583171 9.5415 0.166504 9.12484 0.166504 8.49984C0.166504 7.87484 0.583171 7.45817 1.20817 7.45817H7.45817V1.20817C7.45817 0.583171 7.87484 0.166504 8.49984 0.166504C9.12484 0.166504 9.5415 0.583171 9.5415 1.20817V7.45817H15.7915C16.4165 7.45817 16.8332 7.87484 16.8332 8.49984Z" fill="white"/>
</mask>
<g mask="url(#mask0_695_91176)">
<rect x="-4" y="-4" width="25" height="25" fill="white"/>
</g>
</svg>
