<svg width="24" height="25" viewBox="0 0 24 25" fill="none" xmlns="http://www.w3.org/2000/svg">
<path fill-rule="evenodd" clip-rule="evenodd" d="M21.8 5.99023C21.9 5.99023 21.9 6.09023 21.9 6.09023C22 6.29023 22 6.39023 22 6.49023V20.4902C22 22.1902 20.7 23.4902 19 23.4902H5C3.3 23.4902 2 22.1902 2 20.4902V6.49023V6.09023C2.1 6.09023 2.1 5.99023 2.1 5.99023C2.2 5.99023 2.2 5.89023 2.2 5.89023L5.2 1.89023C5.4 1.59023 5.7 1.49023 6 1.49023H18C18.3 1.49023 18.6 1.59023 18.7 1.89023L21.7 5.89023C21.8 5.89023 21.8 5.99023 21.8 5.99023ZM17.5 3.49023H6.5L5 5.49023H19L17.5 3.49023ZM20 20.4902C20 21.0902 19.6 21.4902 19 21.4902H5C4.4 21.4902 4 21.0902 4 20.4902V7.49023H20V20.4902ZM12 15.4902C14.8 15.4902 17 13.2902 17 10.4902C17 9.89023 16.6 9.49023 16 9.49023C15.4 9.49023 15 9.89023 15 10.4902C15 12.1902 13.7 13.4902 12 13.4902C10.3 13.4902 9 12.1902 9 10.4902C9 9.89023 8.6 9.49023 8 9.49023C7.4 9.49023 7 9.89023 7 10.4902C7 13.2902 9.2 15.4902 12 15.4902Z" fill="black"/>
<mask id="mask0_5647_131480" style="mask-type:alpha" maskUnits="userSpaceOnUse" x="2" y="1" width="20" height="23">
<path fill-rule="evenodd" clip-rule="evenodd" d="M21.8 5.99023C21.9 5.99023 21.9 6.09023 21.9 6.09023C22 6.29023 22 6.39023 22 6.49023V20.4902C22 22.1902 20.7 23.4902 19 23.4902H5C3.3 23.4902 2 22.1902 2 20.4902V6.49023V6.09023C2.1 6.09023 2.1 5.99023 2.1 5.99023C2.2 5.99023 2.2 5.89023 2.2 5.89023L5.2 1.89023C5.4 1.59023 5.7 1.49023 6 1.49023H18C18.3 1.49023 18.6 1.59023 18.7 1.89023L21.7 5.89023C21.8 5.89023 21.8 5.99023 21.8 5.99023ZM17.5 3.49023H6.5L5 5.49023H19L17.5 3.49023ZM20 20.4902C20 21.0902 19.6 21.4902 19 21.4902H5C4.4 21.4902 4 21.0902 4 20.4902V7.49023H20V20.4902ZM12 15.4902C14.8 15.4902 17 13.2902 17 10.4902C17 9.89023 16.6 9.49023 16 9.49023C15.4 9.49023 15 9.89023 15 10.4902C15 12.1902 13.7 13.4902 12 13.4902C10.3 13.4902 9 12.1902 9 10.4902C9 9.89023 8.6 9.49023 8 9.49023C7.4 9.49023 7 9.89023 7 10.4902C7 13.2902 9.2 15.4902 12 15.4902Z" fill="white"/>
</mask>
<g mask="url(#mask0_5647_131480)">
<rect y="0.490234" width="24" height="24" fill="#D2000F"/>
</g>
</svg>
