<svg width="24" height="17" viewBox="0 0 24 17" fill="none" xmlns="http://www.w3.org/2000/svg">
<mask id="mask0_695_91176" style="mask-type:alpha" maskUnits="userSpaceOnUse" x="0" y="0" width="24" height="17">
<path fill-rule="evenodd" clip-rule="evenodd" d="M23.5 2.6C23.2 2.4 22.8 2.5 22.5 2.7L17 6.6V3.5C17 1.8 15.7 0.5 14 0.5H3C1.3 0.5 0 1.8 0 3.5V13.5C0 15.2 1.3 16.5 3 16.5H14C15.7 16.5 17 15.2 17 13.5V10.4L22.4 14.3C22.6 14.4 22.8 14.5 23 14.5C23.2 14.5 23.3 14.5 23.5 14.4C23.8 14.2 24 13.9 24 13.5V3.5C24 3.1 23.8 2.8 23.5 2.6ZM15 13.5C15 14.1 14.6 14.5 14 14.5H3C2.4 14.5 2 14.1 2 13.5V3.5C2 2.9 2.4 2.5 3 2.5H14C14.6 2.5 15 2.9 15 3.5V13.5ZM17.7 8.5L22 11.6V5.4L17.7 8.5Z" fill="white"/>
</mask>
<g mask="url(#mask0_695_91176)">
<rect y="-3.5" width="24" height="24" fill="#28C76F"/>
</g>
</svg>
