<svg width="24" height="18" viewBox="0 0 24 18" fill="none" xmlns="http://www.w3.org/2000/svg">
<mask id="mask0_695_91176" style="mask-type:alpha" maskUnits="userSpaceOnUse" x="0" y="0" width="25" height="18">
<path fill-rule="evenodd" clip-rule="evenodd" d="M23.5247 3.24249L23.5107 3.17719C23.1819 1.8637 22.1757 0.826376 20.8728 0.457769C20.0862 0.265024 18.6065 0.151464 16.5285 0.0789752C15.537 0.044388 14.4765 0.0221917 13.4163 0.00986352C13.0454 0.00555099 12.701 0.00277817 12.3917 0.00123691C12.2057 0.000309968 12.0724 0 12.0006 0C11.9286 0 11.7952 0.00033989 11.609 0.001356C11.2995 0.00304516 10.9549 0.00608391 10.5838 0.0108099C9.52285 0.024321 8.46166 0.0486473 7.46934 0.08656C5.3846 0.166209 3.9016 0.29086 3.14222 0.493952C1.82547 0.866376 0.819268 1.9037 0.490504 3.21719C0.150813 5.08827 -0.00847566 6.92009 0.000590618 8.75494C-0.0110095 10.5924 0.148289 12.4382 0.47646 14.2575C0.860979 15.6256 1.8613 16.6156 3.13666 16.9645C3.9016 17.1691 5.3846 17.2938 7.46934 17.3734C8.46166 17.4114 9.52285 17.4357 10.5838 17.4492C10.9549 17.4539 11.2995 17.457 11.609 17.4586C11.7952 17.4597 11.9286 17.46 12.0006 17.46C12.0725 17.46 12.206 17.4597 12.3922 17.4586C12.7016 17.457 13.0463 17.4539 13.4174 17.4492C14.4783 17.4357 15.5395 17.4114 16.5318 17.3734C18.6166 17.2938 20.0996 17.1691 20.8589 16.966C22.1757 16.5936 23.1819 15.5563 23.5107 14.2428C23.8478 12.3853 24.0071 10.5674 24.0006 8.74641C24.0122 6.90761 23.8529 5.06183 23.5247 3.24249ZM16.4588 2.07776C18.3824 2.14486 19.7986 2.25355 20.3634 2.39146C20.9328 2.55323 21.4008 3.02902 21.563 3.63376C21.8649 5.32008 22.0114 7.03057 22.0006 8.74372C22.0067 10.4532 21.858 12.1499 21.5564 13.8226C21.4157 14.3757 20.9419 14.8642 20.3283 15.0378C19.7853 15.1829 18.3724 15.3017 16.4555 15.3749C15.4821 15.4121 14.4371 15.436 13.3919 15.4494C13.0259 15.454 12.686 15.457 12.3812 15.4587C12.1988 15.4597 12.069 15.46 12.0006 15.46C11.9321 15.46 11.8023 15.4597 11.6199 15.4587C11.3151 15.457 10.9753 15.454 10.6092 15.4494C9.56402 15.436 8.51909 15.4121 7.5457 15.3749C5.6288 15.3017 4.21588 15.1829 3.65894 15.034C3.06393 14.8711 2.59288 14.4049 2.42234 13.8061C2.1384 12.2044 1.98972 10.4817 2.00056 8.75628C1.9921 7.03253 2.14077 5.32284 2.4447 3.63747C2.58547 3.08428 3.05929 2.59581 3.67281 2.42223C4.21588 2.2771 5.6288 2.15834 7.5457 2.0851C8.51909 2.04791 9.56402 2.02396 10.6092 2.01065C10.9753 2.00599 11.3151 2.00299 11.6199 2.00133C11.8023 2.00033 11.9321 2 12.0006 2C12.0692 2 12.1992 2.0003 12.3817 2.00121C12.6867 2.00273 13.0268 2.00547 13.393 2.00973C14.4389 2.02189 15.4846 2.04378 16.4588 2.07776ZM10.2449 12.8893C9.57828 13.2684 8.75058 12.7869 8.75058 12.02V5.48C8.75058 4.71309 9.57828 4.23162 10.2449 4.61074L15.9949 7.88074C16.6691 8.26415 16.6691 9.23585 15.9949 9.61926L10.2449 12.8893ZM10.7506 7.19909L13.4777 8.75L10.7506 10.3009V7.19909Z" fill="white"/>
</mask>
<g mask="url(#mask0_695_91176)">
<rect y="-3" width="24" height="24" fill="#0093AD"/>
</g>
</svg>
