<svg width="16" height="13" viewBox="0 0 16 13" fill="none" xmlns="http://www.w3.org/2000/svg">
<mask id="mask0_695_91176" style="mask-type:alpha" maskUnits="userSpaceOnUse" x="0" y="0" width="17" height="13">
<path fill-rule="evenodd" clip-rule="evenodd" d="M15.6831 2.66166L15.6738 2.61813C15.4546 1.74247 14.7838 1.05092 13.9152 0.805179C13.3908 0.676683 12.4043 0.600976 11.019 0.55265C10.358 0.529592 9.65101 0.514794 8.94419 0.506576C8.69694 0.503701 8.46731 0.501852 8.26112 0.500825C8.13712 0.500207 8.04826 0.5 8.00039 0.5C7.95241 0.5 7.86345 0.500227 7.73933 0.500904C7.53301 0.50203 7.30324 0.504056 7.05584 0.507207C6.34857 0.516214 5.64111 0.532432 4.97956 0.557707C3.58973 0.610806 2.60107 0.693907 2.09481 0.829301C1.21698 1.07758 0.546178 1.76913 0.327003 2.6448C0.100542 3.89218 -0.00565044 5.11339 0.000393745 6.33663C-0.00733967 7.56159 0.0988592 8.79211 0.31764 10.005C0.573986 10.9171 1.24086 11.5771 2.09111 11.8097C2.60107 11.9461 3.58973 12.0292 4.97956 12.0823C5.64111 12.1076 6.34857 12.1238 7.05584 12.1328C7.30324 12.1359 7.53301 12.138 7.73933 12.1391C7.86345 12.1398 7.95241 12.14 8.00039 12.14C8.04836 12.14 8.13733 12.1398 8.26144 12.1391C8.46776 12.138 8.69753 12.1359 8.94493 12.1328C9.6522 12.1238 10.3597 12.1076 11.0212 12.0823C12.411 12.0292 13.3997 11.9461 13.906 11.8107C14.7838 11.5624 15.4546 10.8709 15.6738 9.9952C15.8986 8.75686 16.0047 7.54496 16.0004 6.33094C16.0081 5.10507 15.9019 3.87455 15.6831 2.66166ZM10.9725 1.88517C12.2549 1.92991 13.1991 2.00236 13.5756 2.0943C13.9552 2.20215 14.2672 2.51934 14.3753 2.9225C14.5766 4.04672 14.6742 5.18705 14.6671 6.32915C14.6711 7.46882 14.572 8.59992 14.371 9.71504C14.2771 10.0838 13.9612 10.4095 13.5522 10.5252C13.1902 10.6219 12.2482 10.7011 10.9703 10.7499C10.3214 10.7747 9.62476 10.7907 8.92795 10.7996C8.68392 10.8027 8.45736 10.8047 8.25416 10.8058C8.13256 10.8064 8.04601 10.8067 8.00039 10.8067C7.95476 10.8067 7.86821 10.8064 7.74661 10.8058C7.54341 10.8047 7.31685 10.8027 7.07282 10.7996C6.37601 10.7907 5.67939 10.7747 5.03046 10.7499C3.75254 10.7011 2.81059 10.6219 2.43929 10.5226C2.04262 10.4141 1.72859 10.1033 1.61489 9.70407C1.4256 8.63629 1.32648 7.4878 1.33371 6.33752C1.32807 5.18835 1.42718 4.04856 1.6298 2.92498C1.72365 2.55619 2.03953 2.23054 2.44854 2.11482C2.81059 2.01807 3.75254 1.93889 5.03046 1.89007C5.67939 1.86527 6.37601 1.84931 7.07282 1.84043C7.31685 1.83732 7.54341 1.83533 7.74661 1.83422C7.86821 1.83355 7.95476 1.83333 8.00039 1.83333C8.04611 1.83333 8.13277 1.83353 8.25448 1.83414C8.45782 1.83515 8.68451 1.83698 8.92869 1.83982C9.62595 1.84793 10.323 1.86252 10.9725 1.88517ZM6.82995 9.09284C6.38552 9.34559 5.83372 9.0246 5.83372 8.51333V4.15333C5.83372 3.64206 6.38552 3.32108 6.82995 3.57382L10.6633 5.75382C11.1128 6.00943 11.1128 6.65723 10.6633 6.91284L6.82995 9.09284ZM7.16705 5.2994L8.98514 6.33333L7.16705 7.36727V5.2994Z" fill="white"/>
</mask>
<g mask="url(#mask0_695_91176)">
<rect y="-1.5" width="16" height="16" fill="#D2000F"/>
</g>
</svg>
